<?xml version="1.0" encoding="UTF-8" standalone="no"?>
<!DOCTYPE svg PUBLIC "-//W3C//DTD SVG 1.1//EN"
 "http://www.w3.org/Graphics/SVG/1.1/DTD/svg11.dtd">
<!-- Generated by graphviz version 2.38.0 (20140413.2041)
 -->
<!-- Title: MenuItem Pages: 1 -->
<svg width="105pt" height="270pt"
 viewBox="0.00 0.00 105.00 270.00" xmlns="http://www.w3.org/2000/svg" xmlns:xlink="http://www.w3.org/1999/xlink">
<g id="graph0" class="graph" transform="scale(1 1) rotate(0) translate(4 266)">
<title>MenuItem</title>
<polygon fill="white" stroke="none" points="-4,4 -4,-266 101,-266 101,4 -4,4"/>
<!-- Node1 -->
<g id="node1" class="node"><title>Node1</title>
<polygon fill="#bfbfbf" stroke="black" points="8.5,-0.5 8.5,-101.5 88.5,-101.5 88.5,-0.5 8.5,-0.5"/>
<text text-anchor="middle" x="48.5" y="-89.5" font-family="Helvetica,sans-Serif" font-size="10.00">MenuItem</text>
<polyline fill="none" stroke="black" points="8.5,-82.5 88.5,-82.5 "/>
<text text-anchor="middle" x="48.5" y="-70.5" font-family="Helvetica,sans-Serif" font-size="10.00"> </text>
<polyline fill="none" stroke="black" points="8.5,-63.5 88.5,-63.5 "/>
<text text-anchor="start" x="16.5" y="-51.5" font-family="Helvetica,sans-Serif" font-size="10.00">+ MenuItem()</text>
<text text-anchor="start" x="16.5" y="-40.5" font-family="Helvetica,sans-Serif" font-size="10.00">+ ~MenuItem()</text>
<text text-anchor="start" x="16.5" y="-29.5" font-family="Helvetica,sans-Serif" font-size="10.00">+ description()</text>
<text text-anchor="start" x="16.5" y="-18.5" font-family="Helvetica,sans-Serif" font-size="10.00">+ price()</text>
<text text-anchor="start" x="16.5" y="-7.5" font-family="Helvetica,sans-Serif" font-size="10.00">+ accept()</text>
</g>
<!-- Node2 -->
<g id="node2" class="node"><title>Node2</title>
<g id="a_node2"><a xlink:href="class_composite.html" target="_top" xlink:title="{Composite\n||+ Composite()\l+ ~Composite()\l+ addSubitem()\l+ subitemsCount()\l+ child()\l+ parent()\l+ title()\l}">
<polygon fill="white" stroke="black" points="-7.10543e-15,-138.5 -7.10543e-15,-261.5 97,-261.5 97,-138.5 -7.10543e-15,-138.5"/>
<text text-anchor="middle" x="48.5" y="-249.5" font-family="Helvetica,sans-Serif" font-size="10.00">Composite</text>
<polyline fill="none" stroke="black" points="-7.10543e-15,-242.5 97,-242.5 "/>
<text text-anchor="middle" x="48.5" y="-230.5" font-family="Helvetica,sans-Serif" font-size="10.00"> </text>
<polyline fill="none" stroke="black" points="-7.10543e-15,-223.5 97,-223.5 "/>
<text text-anchor="start" x="8" y="-211.5" font-family="Helvetica,sans-Serif" font-size="10.00">+ Composite()</text>
<text text-anchor="start" x="8" y="-200.5" font-family="Helvetica,sans-Serif" font-size="10.00">+ ~Composite()</text>
<text text-anchor="start" x="8" y="-189.5" font-family="Helvetica,sans-Serif" font-size="10.00">+ addSubitem()</text>
<text text-anchor="start" x="8" y="-178.5" font-family="Helvetica,sans-Serif" font-size="10.00">+ subitemsCount()</text>
<text text-anchor="start" x="8" y="-167.5" font-family="Helvetica,sans-Serif" font-size="10.00">+ child()</text>
<text text-anchor="start" x="8" y="-156.5" font-family="Helvetica,sans-Serif" font-size="10.00">+ parent()</text>
<text text-anchor="start" x="8" y="-145.5" font-family="Helvetica,sans-Serif" font-size="10.00">+ title()</text>
</a>
</g>
</g>
<!-- Node2&#45;&gt;Node1 -->
<g id="edge1" class="edge"><title>Node2&#45;&gt;Node1</title>
<path fill="none" stroke="midnightblue" d="M48.5,-128.289C48.5,-119.323 48.5,-110.301 48.5,-101.758"/>
<polygon fill="none" stroke="midnightblue" points="45.0001,-128.361 48.5,-138.361 52.0001,-128.361 45.0001,-128.361"/>
</g>
</g>
</svg>
