<?xml version="1.0" encoding="UTF-8" standalone="no"?>
<!DOCTYPE svg PUBLIC "-//W3C//DTD SVG 1.1//EN"
 "http://www.w3.org/Graphics/SVG/1.1/DTD/svg11.dtd">
<!-- Generated by graphviz version 2.38.0 (20140413.2041)
 -->
<!-- Title: ConsolePrintMenuVisitor::visit Pages: 1 -->
<svg width="281pt" height="104pt"
 viewBox="0.00 0.00 281.00 104.00" xmlns="http://www.w3.org/2000/svg" xmlns:xlink="http://www.w3.org/1999/xlink">
<g id="graph0" class="graph" transform="scale(1 1) rotate(0) translate(4 100)">
<title>ConsolePrintMenuVisitor::visit</title>
<polygon fill="white" stroke="none" points="-4,4 -4,-100 277,-100 277,4 -4,4"/>
<!-- Node1 -->
<g id="node1" class="node"><title>Node1</title>
<polygon fill="#bfbfbf" stroke="black" points="0,-33 0,-63 124,-63 124,-33 0,-33"/>
<text text-anchor="start" x="8" y="-51" font-family="Helvetica,sans-Serif" font-size="10.00">ConsolePrintMenuVisitor</text>
<text text-anchor="middle" x="62" y="-40" font-family="Helvetica,sans-Serif" font-size="10.00">::visit</text>
</g>
<!-- Node2 -->
<g id="node2" class="node"><title>Node2</title>
<g id="a_node2"><a xlink:href="class_menu_item.html#a20e5d81d79d72d6c95489f6024c6cd94" target="_top" xlink:title="MenuItem::description">
<polygon fill="white" stroke="black" points="160,-76.5 160,-95.5 273,-95.5 273,-76.5 160,-76.5"/>
<text text-anchor="middle" x="216.5" y="-83.5" font-family="Helvetica,sans-Serif" font-size="10.00">MenuItem::description</text>
</a>
</g>
</g>
<!-- Node1&#45;&gt;Node2 -->
<g id="edge1" class="edge"><title>Node1&#45;&gt;Node2</title>
<path fill="none" stroke="midnightblue" d="M123.272,-63.0186C137.877,-66.6578 153.3,-70.501 167.267,-73.9813"/>
<polygon fill="midnightblue" stroke="midnightblue" points="166.597,-77.4214 177.147,-76.4432 168.29,-70.6291 166.597,-77.4214"/>
</g>
<!-- Node3 -->
<g id="node3" class="node"><title>Node3</title>
<g id="a_node3"><a xlink:href="class_menu_item.html#a866ff19a1088beac4463539ea55930f7" target="_top" xlink:title="MenuItem::price">
<polygon fill="white" stroke="black" points="173.5,-38.5 173.5,-57.5 259.5,-57.5 259.5,-38.5 173.5,-38.5"/>
<text text-anchor="middle" x="216.5" y="-45.5" font-family="Helvetica,sans-Serif" font-size="10.00">MenuItem::price</text>
</a>
</g>
</g>
<!-- Node1&#45;&gt;Node3 -->
<g id="edge2" class="edge"><title>Node1&#45;&gt;Node3</title>
<path fill="none" stroke="midnightblue" d="M124.149,-48C136.967,-48 150.378,-48 162.854,-48"/>
<polygon fill="midnightblue" stroke="midnightblue" points="163.08,-51.5001 173.08,-48 163.08,-44.5001 163.08,-51.5001"/>
</g>
<!-- Node4 -->
<g id="node4" class="node"><title>Node4</title>
<g id="a_node4"><a xlink:href="class_composite.html#a8b91171de612128261493725f8fc90e3" target="_top" xlink:title="Composite::title">
<polygon fill="white" stroke="black" points="174,-0.5 174,-19.5 259,-19.5 259,-0.5 174,-0.5"/>
<text text-anchor="middle" x="216.5" y="-7.5" font-family="Helvetica,sans-Serif" font-size="10.00">Composite::title</text>
</a>
</g>
</g>
<!-- Node1&#45;&gt;Node4 -->
<g id="edge3" class="edge"><title>Node1&#45;&gt;Node4</title>
<path fill="none" stroke="midnightblue" d="M123.272,-32.9814C137.877,-29.3422 153.3,-25.499 167.267,-22.0187"/>
<polygon fill="midnightblue" stroke="midnightblue" points="168.29,-25.3709 177.147,-19.5568 166.597,-18.5786 168.29,-25.3709"/>
</g>
</g>
</svg>
