<?xml version="1.0" encoding="UTF-8" standalone="no"?>
<!DOCTYPE svg PUBLIC "-//W3C//DTD SVG 1.1//EN"
 "http://www.w3.org/Graphics/SVG/1.1/DTD/svg11.dtd">
<!-- Generated by graphviz version 2.38.0 (20140413.2041)
 -->
<!-- Title: Composite Pages: 1 -->
<svg width="168pt" height="270pt"
 viewBox="0.00 0.00 167.50 270.00" xmlns="http://www.w3.org/2000/svg" xmlns:xlink="http://www.w3.org/1999/xlink">
<g id="graph0" class="graph" transform="scale(1 1) rotate(0) translate(4 266)">
<title>Composite</title>
<polygon fill="white" stroke="none" points="-4,4 -4,-266 163.5,-266 163.5,4 -4,4"/>
<!-- Node1 -->
<g id="node1" class="node"><title>Node1</title>
<polygon fill="#bfbfbf" stroke="black" points="26,-138.5 26,-261.5 123,-261.5 123,-138.5 26,-138.5"/>
<text text-anchor="middle" x="74.5" y="-249.5" font-family="Helvetica,sans-Serif" font-size="10.00">Composite</text>
<polyline fill="none" stroke="black" points="26,-242.5 123,-242.5 "/>
<text text-anchor="middle" x="74.5" y="-230.5" font-family="Helvetica,sans-Serif" font-size="10.00"> </text>
<polyline fill="none" stroke="black" points="26,-223.5 123,-223.5 "/>
<text text-anchor="start" x="34" y="-211.5" font-family="Helvetica,sans-Serif" font-size="10.00">+ Composite()</text>
<text text-anchor="start" x="34" y="-200.5" font-family="Helvetica,sans-Serif" font-size="10.00">+ ~Composite()</text>
<text text-anchor="start" x="34" y="-189.5" font-family="Helvetica,sans-Serif" font-size="10.00">+ addSubitem()</text>
<text text-anchor="start" x="34" y="-178.5" font-family="Helvetica,sans-Serif" font-size="10.00">+ subitemsCount()</text>
<text text-anchor="start" x="34" y="-167.5" font-family="Helvetica,sans-Serif" font-size="10.00">+ child()</text>
<text text-anchor="start" x="34" y="-156.5" font-family="Helvetica,sans-Serif" font-size="10.00">+ parent()</text>
<text text-anchor="start" x="34" y="-145.5" font-family="Helvetica,sans-Serif" font-size="10.00">+ title()</text>
</g>
<!-- Node2 -->
<g id="node2" class="node"><title>Node2</title>
<g id="a_node2"><a xlink:href="class_menu.html" target="_top" xlink:title="The Menu class is a composite class &#45; menu of items and submenus. ">
<polygon fill="white" stroke="black" points="0,-17 0,-85 61,-85 61,-17 0,-17"/>
<text text-anchor="middle" x="30.5" y="-73" font-family="Helvetica,sans-Serif" font-size="10.00">Menu</text>
<polyline fill="none" stroke="black" points="0,-66 61,-66 "/>
<text text-anchor="middle" x="30.5" y="-54" font-family="Helvetica,sans-Serif" font-size="10.00"> </text>
<polyline fill="none" stroke="black" points="0,-47 61,-47 "/>
<text text-anchor="start" x="8" y="-35" font-family="Helvetica,sans-Serif" font-size="10.00">+ Menu()</text>
<text text-anchor="start" x="8" y="-24" font-family="Helvetica,sans-Serif" font-size="10.00">+ accept()</text>
</a>
</g>
</g>
<!-- Node1&#45;&gt;Node2 -->
<g id="edge1" class="edge"><title>Node1&#45;&gt;Node2</title>
<path fill="none" stroke="midnightblue" d="M53.3911,-128.477C48.8659,-113.359 44.2903,-98.0722 40.4319,-85.1816"/>
<polygon fill="none" stroke="midnightblue" points="50.1289,-129.784 56.3495,-138.361 56.8349,-127.777 50.1289,-129.784"/>
</g>
<!-- Node3 -->
<g id="node3" class="node"><title>Node3</title>
<g id="a_node3"><a xlink:href="class_menu_item.html" target="_top" xlink:title="The MenuItem class is main component, from which derive composites and leaves and also class for menu...">
<polygon fill="white" stroke="black" points="79.5,-0.5 79.5,-101.5 159.5,-101.5 159.5,-0.5 79.5,-0.5"/>
<text text-anchor="middle" x="119.5" y="-89.5" font-family="Helvetica,sans-Serif" font-size="10.00">MenuItem</text>
<polyline fill="none" stroke="black" points="79.5,-82.5 159.5,-82.5 "/>
<text text-anchor="middle" x="119.5" y="-70.5" font-family="Helvetica,sans-Serif" font-size="10.00"> </text>
<polyline fill="none" stroke="black" points="79.5,-63.5 159.5,-63.5 "/>
<text text-anchor="start" x="87.5" y="-51.5" font-family="Helvetica,sans-Serif" font-size="10.00">+ MenuItem()</text>
<text text-anchor="start" x="87.5" y="-40.5" font-family="Helvetica,sans-Serif" font-size="10.00">+ ~MenuItem()</text>
<text text-anchor="start" x="87.5" y="-29.5" font-family="Helvetica,sans-Serif" font-size="10.00">+ description()</text>
<text text-anchor="start" x="87.5" y="-18.5" font-family="Helvetica,sans-Serif" font-size="10.00">+ price()</text>
<text text-anchor="start" x="87.5" y="-7.5" font-family="Helvetica,sans-Serif" font-size="10.00">+ accept()</text>
</a>
</g>
</g>
<!-- Node1&#45;&gt;Node3 -->
<g id="edge2" class="edge"><title>Node1&#45;&gt;Node3</title>
<path fill="none" stroke="midnightblue" d="M96.0576,-128.578C98.8316,-119.517 101.625,-110.392 104.268,-101.758"/>
<polygon fill="none" stroke="midnightblue" points="92.6435,-127.774 93.063,-138.361 99.3369,-129.823 92.6435,-127.774"/>
</g>
</g>
</svg>
