<?xml version="1.0" encoding="UTF-8" standalone="no"?>
<!DOCTYPE svg PUBLIC "-//W3C//DTD SVG 1.1//EN"
 "http://www.w3.org/Graphics/SVG/1.1/DTD/svg11.dtd">
<!-- Generated by graphviz version 2.38.0 (20140413.2041)
 -->
<!-- Title: MenuItem::addSubitem Pages: 1 -->
<svg width="340pt" height="28pt"
 viewBox="0.00 0.00 340.00 28.00" xmlns="http://www.w3.org/2000/svg" xmlns:xlink="http://www.w3.org/1999/xlink">
<g id="graph0" class="graph" transform="scale(1 1) rotate(0) translate(4 24)">
<title>MenuItem::addSubitem</title>
<polygon fill="white" stroke="none" points="-4,4 -4,-24 336,-24 336,4 -4,4"/>
<!-- Node1 -->
<g id="node1" class="node"><title>Node1</title>
<polygon fill="#bfbfbf" stroke="black" points="0,-0.5 0,-19.5 117,-19.5 117,-0.5 0,-0.5"/>
<text text-anchor="middle" x="58.5" y="-7.5" font-family="Helvetica,sans-Serif" font-size="10.00">MenuItem::addSubitem</text>
</g>
<!-- Node2 -->
<g id="node2" class="node"><title>Node2</title>
<g id="a_node2"><a xlink:href="main_8cpp.html#ae3770e546671407bd87b7fffdfbd8d7d" target="_top" xlink:title="createAndPrintMenu">
<polygon fill="white" stroke="black" points="153,-0.5 153,-19.5 258,-19.5 258,-0.5 153,-0.5"/>
<text text-anchor="middle" x="205.5" y="-7.5" font-family="Helvetica,sans-Serif" font-size="10.00">createAndPrintMenu</text>
</a>
</g>
</g>
<!-- Node1&#45;&gt;Node2 -->
<g id="edge1" class="edge"><title>Node1&#45;&gt;Node2</title>
<path fill="none" stroke="midnightblue" d="M127.464,-10C135.917,-10 144.453,-10 152.609,-10"/>
<polygon fill="midnightblue" stroke="midnightblue" points="127.225,-6.5001 117.224,-10 127.224,-13.5001 127.225,-6.5001"/>
</g>
<!-- Node3 -->
<g id="node3" class="node"><title>Node3</title>
<g id="a_node3"><a xlink:href="main_8cpp.html#a0ddf1224851353fc92bfbff6f499fa97" target="_top" xlink:title="main">
<polygon fill="white" stroke="black" points="294,-0.5 294,-19.5 332,-19.5 332,-0.5 294,-0.5"/>
<text text-anchor="middle" x="313" y="-7.5" font-family="Helvetica,sans-Serif" font-size="10.00">main</text>
</a>
</g>
</g>
<!-- Node2&#45;&gt;Node3 -->
<g id="edge2" class="edge"><title>Node2&#45;&gt;Node3</title>
<path fill="none" stroke="midnightblue" d="M268.148,-10C277.404,-10 286.283,-10 293.601,-10"/>
<polygon fill="midnightblue" stroke="midnightblue" points="268.014,-6.5001 258.014,-10 268.014,-13.5001 268.014,-6.5001"/>
</g>
</g>
</svg>
