<?xml version="1.0" encoding="UTF-8" standalone="no"?>
<!DOCTYPE svg PUBLIC "-//W3C//DTD SVG 1.1//EN"
 "http://www.w3.org/Graphics/SVG/1.1/DTD/svg11.dtd">
<!-- Generated by graphviz version 2.38.0 (20140413.2041)
 -->
<!-- Title: ConsolePrintMenuVisitor Pages: 1 -->
<svg width="132pt" height="182pt"
 viewBox="0.00 0.00 132.00 182.00" xmlns="http://www.w3.org/2000/svg" xmlns:xlink="http://www.w3.org/1999/xlink">
<g id="graph0" class="graph" transform="scale(1 1) rotate(0) translate(4 178)">
<title>ConsolePrintMenuVisitor</title>
<polygon fill="white" stroke="none" points="-4,4 -4,-178 128,-178 128,4 -4,4"/>
<!-- Node1 -->
<g id="node1" class="node"><title>Node1</title>
<polygon fill="#bfbfbf" stroke="black" points="-7.10543e-15,-0.5 -7.10543e-15,-68.5 124,-68.5 124,-0.5 -7.10543e-15,-0.5"/>
<text text-anchor="middle" x="62" y="-56.5" font-family="Helvetica,sans-Serif" font-size="10.00">ConsolePrintMenuVisitor</text>
<polyline fill="none" stroke="black" points="-7.10543e-15,-49.5 124,-49.5 "/>
<text text-anchor="middle" x="62" y="-37.5" font-family="Helvetica,sans-Serif" font-size="10.00"> </text>
<polyline fill="none" stroke="black" points="-7.10543e-15,-30.5 124,-30.5 "/>
<text text-anchor="start" x="8" y="-18.5" font-family="Helvetica,sans-Serif" font-size="10.00">+ visit()</text>
<text text-anchor="start" x="8" y="-7.5" font-family="Helvetica,sans-Serif" font-size="10.00">+ visit()</text>
</g>
<!-- Node2 -->
<g id="node2" class="node"><title>Node2</title>
<g id="a_node2"><a xlink:href="class_menu_visitor.html" target="_top" xlink:title="{MenuVisitor\n||+ visit()\l+ visit()\l}">
<polygon fill="white" stroke="black" points="28,-105.5 28,-173.5 96,-173.5 96,-105.5 28,-105.5"/>
<text text-anchor="middle" x="62" y="-161.5" font-family="Helvetica,sans-Serif" font-size="10.00">MenuVisitor</text>
<polyline fill="none" stroke="black" points="28,-154.5 96,-154.5 "/>
<text text-anchor="middle" x="62" y="-142.5" font-family="Helvetica,sans-Serif" font-size="10.00"> </text>
<polyline fill="none" stroke="black" points="28,-135.5 96,-135.5 "/>
<text text-anchor="start" x="36" y="-123.5" font-family="Helvetica,sans-Serif" font-size="10.00">+ visit()</text>
<text text-anchor="start" x="36" y="-112.5" font-family="Helvetica,sans-Serif" font-size="10.00">+ visit()</text>
</a>
</g>
</g>
<!-- Node2&#45;&gt;Node1 -->
<g id="edge1" class="edge"><title>Node2&#45;&gt;Node1</title>
<path fill="none" stroke="midnightblue" d="M62,-95.1362C62,-86.256 62,-77.0447 62,-68.5947"/>
<polygon fill="none" stroke="midnightblue" points="58.5001,-95.3432 62,-105.343 65.5001,-95.3432 58.5001,-95.3432"/>
</g>
</g>
</svg>
