<?xml version="1.0" encoding="UTF-8" standalone="no"?>
<!DOCTYPE svg PUBLIC "-//W3C//DTD SVG 1.1//EN"
 "http://www.w3.org/Graphics/SVG/1.1/DTD/svg11.dtd">
<!-- Generated by graphviz version 2.38.0 (20140413.2041)
 -->
<!-- Title: Menu Pages: 1 -->
<svg width="105pt" height="237pt"
 viewBox="0.00 0.00 105.00 237.00" xmlns="http://www.w3.org/2000/svg" xmlns:xlink="http://www.w3.org/1999/xlink">
<g id="graph0" class="graph" transform="scale(1 1) rotate(0) translate(4 233)">
<title>Menu</title>
<polygon fill="white" stroke="none" points="-4,4 -4,-233 101,-233 101,4 -4,4"/>
<!-- Node1 -->
<g id="node1" class="node"><title>Node1</title>
<polygon fill="#bfbfbf" stroke="black" points="18,-0.5 18,-68.5 79,-68.5 79,-0.5 18,-0.5"/>
<text text-anchor="middle" x="48.5" y="-56.5" font-family="Helvetica,sans-Serif" font-size="10.00">Menu</text>
<polyline fill="none" stroke="black" points="18,-49.5 79,-49.5 "/>
<text text-anchor="middle" x="48.5" y="-37.5" font-family="Helvetica,sans-Serif" font-size="10.00"> </text>
<polyline fill="none" stroke="black" points="18,-30.5 79,-30.5 "/>
<text text-anchor="start" x="26" y="-18.5" font-family="Helvetica,sans-Serif" font-size="10.00">+ Menu()</text>
<text text-anchor="start" x="26" y="-7.5" font-family="Helvetica,sans-Serif" font-size="10.00">+ accept()</text>
</g>
<!-- Node2 -->
<g id="node2" class="node"><title>Node2</title>
<g id="a_node2"><a xlink:href="class_composite.html" target="_top" xlink:title="{Composite\n||+ Composite()\l+ ~Composite()\l+ addSubitem()\l+ subitemsCount()\l+ child()\l+ parent()\l+ title()\l}">
<polygon fill="white" stroke="black" points="-7.10543e-15,-105.5 -7.10543e-15,-228.5 97,-228.5 97,-105.5 -7.10543e-15,-105.5"/>
<text text-anchor="middle" x="48.5" y="-216.5" font-family="Helvetica,sans-Serif" font-size="10.00">Composite</text>
<polyline fill="none" stroke="black" points="-7.10543e-15,-209.5 97,-209.5 "/>
<text text-anchor="middle" x="48.5" y="-197.5" font-family="Helvetica,sans-Serif" font-size="10.00"> </text>
<polyline fill="none" stroke="black" points="-7.10543e-15,-190.5 97,-190.5 "/>
<text text-anchor="start" x="8" y="-178.5" font-family="Helvetica,sans-Serif" font-size="10.00">+ Composite()</text>
<text text-anchor="start" x="8" y="-167.5" font-family="Helvetica,sans-Serif" font-size="10.00">+ ~Composite()</text>
<text text-anchor="start" x="8" y="-156.5" font-family="Helvetica,sans-Serif" font-size="10.00">+ addSubitem()</text>
<text text-anchor="start" x="8" y="-145.5" font-family="Helvetica,sans-Serif" font-size="10.00">+ subitemsCount()</text>
<text text-anchor="start" x="8" y="-134.5" font-family="Helvetica,sans-Serif" font-size="10.00">+ child()</text>
<text text-anchor="start" x="8" y="-123.5" font-family="Helvetica,sans-Serif" font-size="10.00">+ parent()</text>
<text text-anchor="start" x="8" y="-112.5" font-family="Helvetica,sans-Serif" font-size="10.00">+ title()</text>
</a>
</g>
</g>
<!-- Node2&#45;&gt;Node1 -->
<g id="edge1" class="edge"><title>Node2&#45;&gt;Node1</title>
<path fill="none" stroke="midnightblue" d="M48.5,-95.2438C48.5,-85.9655 48.5,-76.8368 48.5,-68.6152"/>
<polygon fill="none" stroke="midnightblue" points="45.0001,-95.3345 48.5,-105.335 52.0001,-95.3346 45.0001,-95.3345"/>
</g>
</g>
</svg>
