<?xml version="1.0" encoding="UTF-8" standalone="no"?>
<!DOCTYPE svg PUBLIC "-//W3C//DTD SVG 1.1//EN"
 "http://www.w3.org/Graphics/SVG/1.1/DTD/svg11.dtd">
<!-- Generated by graphviz version 2.38.0 (20140413.2041)
 -->
<!-- Title: MenuVisitor::visit Pages: 1 -->
<svg width="230pt" height="66pt"
 viewBox="0.00 0.00 230.00 66.00" xmlns="http://www.w3.org/2000/svg" xmlns:xlink="http://www.w3.org/1999/xlink">
<g id="graph0" class="graph" transform="scale(1 1) rotate(0) translate(4 62)">
<title>MenuVisitor::visit</title>
<polygon fill="white" stroke="none" points="-4,4 -4,-62 226,-62 226,4 -4,4"/>
<!-- Node1 -->
<g id="node1" class="node"><title>Node1</title>
<polygon fill="#bfbfbf" stroke="black" points="0,-19.5 0,-38.5 91,-38.5 91,-19.5 0,-19.5"/>
<text text-anchor="middle" x="45.5" y="-26.5" font-family="Helvetica,sans-Serif" font-size="10.00">MenuVisitor::visit</text>
</g>
<!-- Node2 -->
<g id="node2" class="node"><title>Node2</title>
<g id="a_node2"><a xlink:href="class_menu.html#a2676a5f8b70ebf12b27fa17486347606" target="_top" xlink:title="Menu::accept">
<polygon fill="white" stroke="black" points="136.5,-38.5 136.5,-57.5 212.5,-57.5 212.5,-38.5 136.5,-38.5"/>
<text text-anchor="middle" x="174.5" y="-45.5" font-family="Helvetica,sans-Serif" font-size="10.00">Menu::accept</text>
</a>
</g>
</g>
<!-- Node1&#45;&gt;Node2 -->
<g id="edge1" class="edge"><title>Node1&#45;&gt;Node2</title>
<path fill="none" stroke="midnightblue" d="M101.46,-37.2223C113.213,-38.9806 125.363,-40.7984 136.261,-42.4288"/>
<polygon fill="midnightblue" stroke="midnightblue" points="101.683,-33.7169 91.2754,-35.6987 100.647,-40.6398 101.683,-33.7169"/>
</g>
<!-- Node3 -->
<g id="node3" class="node"><title>Node3</title>
<g id="a_node3"><a xlink:href="class_menu_item.html#ab00ef3b5932d8fb37f4cd766e6d4203f" target="_top" xlink:title="MenuItem::accept">
<polygon fill="white" stroke="black" points="127,-0.5 127,-19.5 222,-19.5 222,-0.5 127,-0.5"/>
<text text-anchor="middle" x="174.5" y="-7.5" font-family="Helvetica,sans-Serif" font-size="10.00">MenuItem::accept</text>
</a>
</g>
</g>
<!-- Node1&#45;&gt;Node3 -->
<g id="edge2" class="edge"><title>Node1&#45;&gt;Node3</title>
<path fill="none" stroke="midnightblue" d="M101.214,-20.8144C109.799,-19.53 118.603,-18.213 126.98,-16.9596"/>
<polygon fill="midnightblue" stroke="midnightblue" points="100.647,-17.3602 91.2754,-22.3013 101.683,-24.2831 100.647,-17.3602"/>
</g>
</g>
</svg>
