<?xml version="1.0" encoding="UTF-8" standalone="no"?>
<!DOCTYPE svg PUBLIC "-//W3C//DTD SVG 1.1//EN"
 "http://www.w3.org/Graphics/SVG/1.1/DTD/svg11.dtd">
<!-- Generated by graphviz version 2.38.0 (20140413.2041)
 -->
<!-- Title: composite.h Pages: 1 -->
<svg width="501pt" height="140pt"
 viewBox="0.00 0.00 500.50 140.00" xmlns="http://www.w3.org/2000/svg" xmlns:xlink="http://www.w3.org/1999/xlink">
<g id="graph0" class="graph" transform="scale(1 1) rotate(0) translate(4 136)">
<title>composite.h</title>
<polygon fill="white" stroke="none" points="-4,4 -4,-136 496.5,-136 496.5,4 -4,4"/>
<!-- Node1 -->
<g id="node1" class="node"><title>Node1</title>
<polygon fill="#bfbfbf" stroke="black" points="89.5,-112.5 89.5,-131.5 159.5,-131.5 159.5,-112.5 89.5,-112.5"/>
<text text-anchor="middle" x="124.5" y="-119.5" font-family="Helvetica,sans-Serif" font-size="10.00">composite.h</text>
</g>
<!-- Node2 -->
<g id="node2" class="node"><title>Node2</title>
<g id="a_node2"><a xlink:href="composite_8cpp.html" target="_top" xlink:title="composite.cpp">
<polygon fill="white" stroke="black" points="1.5,-56.5 1.5,-75.5 81.5,-75.5 81.5,-56.5 1.5,-56.5"/>
<text text-anchor="middle" x="41.5" y="-63.5" font-family="Helvetica,sans-Serif" font-size="10.00">composite.cpp</text>
</a>
</g>
</g>
<!-- Node1&#45;&gt;Node2 -->
<g id="edge1" class="edge"><title>Node1&#45;&gt;Node2</title>
<path fill="none" stroke="midnightblue" d="M102.401,-106.622C87.2382,-96.7574 67.6172,-83.9919 54.8023,-75.6545"/>
<polygon fill="midnightblue" stroke="midnightblue" points="100.874,-109.804 111.165,-112.324 104.691,-103.937 100.874,-109.804"/>
</g>
<!-- Node3 -->
<g id="node3" class="node"><title>Node3</title>
<g id="a_node3"><a xlink:href="menuitem_8h.html" target="_top" xlink:title="menuitem.h">
<polygon fill="white" stroke="black" points="186.5,-56.5 186.5,-75.5 254.5,-75.5 254.5,-56.5 186.5,-56.5"/>
<text text-anchor="middle" x="220.5" y="-63.5" font-family="Helvetica,sans-Serif" font-size="10.00">menuitem.h</text>
</a>
</g>
</g>
<!-- Node1&#45;&gt;Node3 -->
<g id="edge2" class="edge"><title>Node1&#45;&gt;Node3</title>
<path fill="none" stroke="midnightblue" d="M149.074,-107.177C166.739,-97.2407 190.013,-84.1492 205.114,-75.6545"/>
<polygon fill="midnightblue" stroke="midnightblue" points="146.924,-104.371 139.924,-112.324 150.356,-110.472 146.924,-104.371"/>
</g>
<!-- Node8 -->
<g id="node8" class="node"><title>Node8</title>
<g id="a_node8"><a xlink:href="menu_8h.html" target="_top" xlink:title="menu.h">
<polygon fill="white" stroke="black" points="100,-56.5 100,-75.5 149,-75.5 149,-56.5 100,-56.5"/>
<text text-anchor="middle" x="124.5" y="-63.5" font-family="Helvetica,sans-Serif" font-size="10.00">menu.h</text>
</a>
</g>
</g>
<!-- Node1&#45;&gt;Node8 -->
<g id="edge7" class="edge"><title>Node1&#45;&gt;Node8</title>
<path fill="none" stroke="midnightblue" d="M124.5,-101.805C124.5,-92.9102 124.5,-82.7798 124.5,-75.7511"/>
<polygon fill="midnightblue" stroke="midnightblue" points="121,-102.083 124.5,-112.083 128,-102.083 121,-102.083"/>
</g>
<!-- Node4 -->
<g id="node4" class="node"><title>Node4</title>
<g id="a_node4"><a xlink:href="consoleprintmenuvisitor_8cpp.html" target="_top" xlink:title="consoleprintmenuvisitor.cpp">
<polygon fill="white" stroke="black" points="152,-0.5 152,-19.5 289,-19.5 289,-0.5 152,-0.5"/>
<text text-anchor="middle" x="220.5" y="-7.5" font-family="Helvetica,sans-Serif" font-size="10.00">consoleprintmenuvisitor.cpp</text>
</a>
</g>
</g>
<!-- Node3&#45;&gt;Node4 -->
<g id="edge3" class="edge"><title>Node3&#45;&gt;Node4</title>
<path fill="none" stroke="midnightblue" d="M220.5,-45.8045C220.5,-36.9102 220.5,-26.7798 220.5,-19.7511"/>
<polygon fill="midnightblue" stroke="midnightblue" points="217,-46.083 220.5,-56.083 224,-46.083 217,-46.083"/>
</g>
<!-- Node5 -->
<g id="node5" class="node"><title>Node5</title>
<g id="a_node5"><a xlink:href="main_8cpp.html" target="_top" xlink:title="main.cpp">
<polygon fill="white" stroke="black" points="77.5,-0.5 77.5,-19.5 133.5,-19.5 133.5,-0.5 77.5,-0.5"/>
<text text-anchor="middle" x="105.5" y="-7.5" font-family="Helvetica,sans-Serif" font-size="10.00">main.cpp</text>
</a>
</g>
</g>
<!-- Node3&#45;&gt;Node5 -->
<g id="edge4" class="edge"><title>Node3&#45;&gt;Node5</title>
<path fill="none" stroke="midnightblue" d="M193.019,-52.096C171.534,-42.0073 142.278,-28.2697 123.637,-19.5164"/>
<polygon fill="midnightblue" stroke="midnightblue" points="191.738,-55.3612 202.278,-56.4435 194.714,-49.025 191.738,-55.3612"/>
</g>
<!-- Node6 -->
<g id="node6" class="node"><title>Node6</title>
<g id="a_node6"><a xlink:href="menuitem_8cpp.html" target="_top" xlink:title="menuitem.cpp">
<polygon fill="white" stroke="black" points="414.5,-0.5 414.5,-19.5 492.5,-19.5 492.5,-0.5 414.5,-0.5"/>
<text text-anchor="middle" x="453.5" y="-7.5" font-family="Helvetica,sans-Serif" font-size="10.00">menuitem.cpp</text>
</a>
</g>
</g>
<!-- Node3&#45;&gt;Node6 -->
<g id="edge5" class="edge"><title>Node3&#45;&gt;Node6</title>
<path fill="none" stroke="midnightblue" d="M264.725,-54.7504C308.724,-44.5531 375.46,-29.0865 416.669,-19.536"/>
<polygon fill="midnightblue" stroke="midnightblue" points="263.832,-51.3647 254.88,-57.0321 265.412,-58.1839 263.832,-51.3647"/>
</g>
<!-- Node7 -->
<g id="node7" class="node"><title>Node7</title>
<g id="a_node7"><a xlink:href="menuiterator_8cpp.html" target="_top" xlink:title="menuiterator.cpp">
<polygon fill="white" stroke="black" points="307,-0.5 307,-19.5 396,-19.5 396,-0.5 307,-0.5"/>
<text text-anchor="middle" x="351.5" y="-7.5" font-family="Helvetica,sans-Serif" font-size="10.00">menuiterator.cpp</text>
</a>
</g>
</g>
<!-- Node3&#45;&gt;Node7 -->
<g id="edge6" class="edge"><title>Node3&#45;&gt;Node7</title>
<path fill="none" stroke="midnightblue" d="M250.817,-52.503C275.376,-42.3795 309.318,-28.388 330.84,-19.5164"/>
<polygon fill="midnightblue" stroke="midnightblue" points="249.169,-49.3966 241.257,-56.4435 251.837,-55.8683 249.169,-49.3966"/>
</g>
<!-- Node8&#45;&gt;Node4 -->
<g id="edge8" class="edge"><title>Node8&#45;&gt;Node4</title>
<path fill="none" stroke="midnightblue" d="M149.074,-51.1774C166.739,-41.2407 190.013,-28.1492 205.114,-19.6545"/>
<polygon fill="midnightblue" stroke="midnightblue" points="146.924,-48.3708 139.924,-56.324 150.356,-54.4718 146.924,-48.3708"/>
</g>
<!-- Node8&#45;&gt;Node5 -->
<g id="edge9" class="edge"><title>Node8&#45;&gt;Node5</title>
<path fill="none" stroke="midnightblue" d="M117.954,-46.3956C114.776,-37.362 111.107,-26.936 108.579,-19.7511"/>
<polygon fill="midnightblue" stroke="midnightblue" points="114.742,-47.8116 121.363,-56.083 121.345,-45.4882 114.742,-47.8116"/>
</g>
<!-- Node9 -->
<g id="node9" class="node"><title>Node9</title>
<g id="a_node9"><a xlink:href="menu_8cpp.html" target="_top" xlink:title="menu.cpp">
<polygon fill="white" stroke="black" points="0,-0.5 0,-19.5 59,-19.5 59,-0.5 0,-0.5"/>
<text text-anchor="middle" x="29.5" y="-7.5" font-family="Helvetica,sans-Serif" font-size="10.00">menu.cpp</text>
</a>
</g>
</g>
<!-- Node8&#45;&gt;Node9 -->
<g id="edge10" class="edge"><title>Node8&#45;&gt;Node9</title>
<path fill="none" stroke="midnightblue" d="M100.182,-51.1774C82.7012,-41.2407 59.6699,-28.1492 44.7255,-19.6545"/>
<polygon fill="midnightblue" stroke="midnightblue" points="98.8133,-54.425 109.237,-56.324 102.273,-48.3395 98.8133,-54.425"/>
</g>
</g>
</svg>
