<?xml version="1.0" encoding="UTF-8" standalone="no"?>
<!DOCTYPE svg PUBLIC "-//W3C//DTD SVG 1.1//EN"
 "http://www.w3.org/Graphics/SVG/1.1/DTD/svg11.dtd">
<!-- Generated by graphviz version 2.38.0 (20140413.2041)
 -->
<!-- Title: consoleprintmenuvisitor.cpp Pages: 1 -->
<svg width="380pt" height="196pt"
 viewBox="0.00 0.00 380.00 196.00" xmlns="http://www.w3.org/2000/svg" xmlns:xlink="http://www.w3.org/1999/xlink">
<g id="graph0" class="graph" transform="scale(1 1) rotate(0) translate(4 192)">
<title>consoleprintmenuvisitor.cpp</title>
<polygon fill="white" stroke="none" points="-4,4 -4,-192 376,-192 376,4 -4,4"/>
<!-- Node1 -->
<g id="node1" class="node"><title>Node1</title>
<polygon fill="#bfbfbf" stroke="black" points="158.5,-168.5 158.5,-187.5 295.5,-187.5 295.5,-168.5 158.5,-168.5"/>
<text text-anchor="middle" x="227" y="-175.5" font-family="Helvetica,sans-Serif" font-size="10.00">consoleprintmenuvisitor.cpp</text>
</g>
<!-- Node2 -->
<g id="node2" class="node"><title>Node2</title>
<g id="a_node2"><a xlink:href="consoleprintmenuvisitor_8h.html" target="_top" xlink:title="consoleprintmenuvisitor.h">
<polygon fill="white" stroke="black" points="20,-112.5 20,-131.5 146,-131.5 146,-112.5 20,-112.5"/>
<text text-anchor="middle" x="83" y="-119.5" font-family="Helvetica,sans-Serif" font-size="10.00">consoleprintmenuvisitor.h</text>
</a>
</g>
</g>
<!-- Node1&#45;&gt;Node2 -->
<g id="edge1" class="edge"><title>Node1&#45;&gt;Node2</title>
<path fill="none" stroke="midnightblue" d="M204.183,-168.444C180.168,-159.438 142.171,-145.189 115.131,-135.049"/>
<polygon fill="midnightblue" stroke="midnightblue" points="116.303,-131.751 105.71,-131.516 113.845,-138.305 116.303,-131.751"/>
</g>
<!-- Node5 -->
<g id="node5" class="node"><title>Node5</title>
<polygon fill="white" stroke="#bfbfbf" points="318,-112.5 318,-131.5 372,-131.5 372,-112.5 318,-112.5"/>
<text text-anchor="middle" x="345" y="-119.5" font-family="Helvetica,sans-Serif" font-size="10.00">iostream</text>
</g>
<!-- Node1&#45;&gt;Node5 -->
<g id="edge4" class="edge"><title>Node1&#45;&gt;Node5</title>
<path fill="none" stroke="midnightblue" d="M245.697,-168.444C264.944,-159.636 295.152,-145.812 317.2,-135.722"/>
<polygon fill="midnightblue" stroke="midnightblue" points="318.753,-138.86 326.39,-131.516 315.84,-132.495 318.753,-138.86"/>
</g>
<!-- Node6 -->
<g id="node6" class="node"><title>Node6</title>
<g id="a_node6"><a xlink:href="menuitem_8h.html" target="_top" xlink:title="menuitem.h">
<polygon fill="white" stroke="black" points="232,-112.5 232,-131.5 300,-131.5 300,-112.5 232,-112.5"/>
<text text-anchor="middle" x="266" y="-119.5" font-family="Helvetica,sans-Serif" font-size="10.00">menuitem.h</text>
</a>
</g>
</g>
<!-- Node1&#45;&gt;Node6 -->
<g id="edge5" class="edge"><title>Node1&#45;&gt;Node6</title>
<path fill="none" stroke="midnightblue" d="M233.44,-168.083C238.949,-160.455 247.031,-149.264 253.765,-139.941"/>
<polygon fill="midnightblue" stroke="midnightblue" points="256.662,-141.907 259.68,-131.751 250.987,-137.809 256.662,-141.907"/>
</g>
<!-- Node9 -->
<g id="node9" class="node"><title>Node9</title>
<g id="a_node9"><a xlink:href="menu_8h.html" target="_top" xlink:title="menu.h">
<polygon fill="white" stroke="black" points="164.5,-112.5 164.5,-131.5 213.5,-131.5 213.5,-112.5 164.5,-112.5"/>
<text text-anchor="middle" x="189" y="-119.5" font-family="Helvetica,sans-Serif" font-size="10.00">menu.h</text>
</a>
</g>
</g>
<!-- Node1&#45;&gt;Node9 -->
<g id="edge11" class="edge"><title>Node1&#45;&gt;Node9</title>
<path fill="none" stroke="midnightblue" d="M220.725,-168.083C215.358,-160.455 207.482,-149.264 200.921,-139.941"/>
<polygon fill="midnightblue" stroke="midnightblue" points="203.775,-137.915 195.158,-131.751 198.051,-141.943 203.775,-137.915"/>
</g>
<!-- Node3 -->
<g id="node3" class="node"><title>Node3</title>
<polygon fill="white" stroke="#bfbfbf" points="151.5,-0.5 151.5,-19.5 192.5,-19.5 192.5,-0.5 151.5,-0.5"/>
<text text-anchor="middle" x="172" y="-7.5" font-family="Helvetica,sans-Serif" font-size="10.00">string</text>
</g>
<!-- Node2&#45;&gt;Node3 -->
<g id="edge2" class="edge"><title>Node2&#45;&gt;Node3</title>
<path fill="none" stroke="midnightblue" d="M89.9837,-112.368C104.736,-94.135 139.292,-51.4257 158.508,-27.6752"/>
<polygon fill="midnightblue" stroke="midnightblue" points="161.48,-29.567 165.049,-19.5914 156.038,-25.164 161.48,-29.567"/>
</g>
<!-- Node4 -->
<g id="node4" class="node"><title>Node4</title>
<g id="a_node4"><a xlink:href="menuvisitor_8h.html" target="_top" xlink:title="menuvisitor.h">
<polygon fill="white" stroke="black" points="0,-56.5 0,-75.5 74,-75.5 74,-56.5 0,-56.5"/>
<text text-anchor="middle" x="37" y="-63.5" font-family="Helvetica,sans-Serif" font-size="10.00">menuvisitor.h</text>
</a>
</g>
</g>
<!-- Node2&#45;&gt;Node4 -->
<g id="edge3" class="edge"><title>Node2&#45;&gt;Node4</title>
<path fill="none" stroke="midnightblue" d="M75.404,-112.083C68.7725,-104.298 58.979,-92.8015 50.9419,-83.3665"/>
<polygon fill="midnightblue" stroke="midnightblue" points="53.6037,-81.0939 44.4546,-75.7511 48.275,-85.6332 53.6037,-81.0939"/>
</g>
<!-- Node6&#45;&gt;Node3 -->
<g id="edge6" class="edge"><title>Node6&#45;&gt;Node3</title>
<path fill="none" stroke="midnightblue" d="M265.433,-112.092C264.162,-98.6455 260.075,-72.9383 247,-56 235.474,-41.0687 217.475,-30.0324 201.999,-22.6268"/>
<polygon fill="midnightblue" stroke="midnightblue" points="203.325,-19.3858 192.769,-18.4826 200.458,-25.7716 203.325,-19.3858"/>
</g>
<!-- Node7 -->
<g id="node7" class="node"><title>Node7</title>
<polygon fill="white" stroke="#bfbfbf" points="212,-0.5 212,-19.5 254,-19.5 254,-0.5 212,-0.5"/>
<text text-anchor="middle" x="233" y="-7.5" font-family="Helvetica,sans-Serif" font-size="10.00">vector</text>
</g>
<!-- Node6&#45;&gt;Node7 -->
<g id="edge7" class="edge"><title>Node6&#45;&gt;Node7</title>
<path fill="none" stroke="midnightblue" d="M271.126,-112.268C277.923,-99.481 288.16,-75.1091 280,-56 274.853,-43.9469 264.719,-33.5764 255.174,-25.8389"/>
<polygon fill="midnightblue" stroke="midnightblue" points="257.172,-22.9619 247.078,-19.7409 252.96,-28.5532 257.172,-22.9619"/>
</g>
<!-- Node8 -->
<g id="node8" class="node"><title>Node8</title>
<g id="a_node8"><a xlink:href="composite_8h.html" target="_top" xlink:title="composite.h">
<polygon fill="white" stroke="black" points="168,-56.5 168,-75.5 238,-75.5 238,-56.5 168,-56.5"/>
<text text-anchor="middle" x="203" y="-63.5" font-family="Helvetica,sans-Serif" font-size="10.00">composite.h</text>
</a>
</g>
</g>
<!-- Node6&#45;&gt;Node8 -->
<g id="edge8" class="edge"><title>Node6&#45;&gt;Node8</title>
<path fill="none" stroke="midnightblue" d="M255.878,-112.324C246.474,-104.263 232.256,-92.0765 220.931,-82.3695"/>
<polygon fill="midnightblue" stroke="midnightblue" points="223.177,-79.6844 213.306,-75.8339 218.621,-84.9993 223.177,-79.6844"/>
</g>
<!-- Node8&#45;&gt;Node3 -->
<g id="edge9" class="edge"><title>Node8&#45;&gt;Node3</title>
<path fill="none" stroke="midnightblue" d="M197.881,-56.083C193.592,-48.6127 187.342,-37.7244 182.058,-28.5199"/>
<polygon fill="midnightblue" stroke="midnightblue" points="185.038,-26.6811 177.024,-19.7511 178.967,-30.1662 185.038,-26.6811"/>
</g>
<!-- Node8&#45;&gt;Node7 -->
<g id="edge10" class="edge"><title>Node8&#45;&gt;Node7</title>
<path fill="none" stroke="midnightblue" d="M207.954,-56.083C212.104,-48.6127 218.153,-37.7244 223.267,-28.5199"/>
<polygon fill="midnightblue" stroke="midnightblue" points="226.341,-30.1924 228.138,-19.7511 220.222,-26.7929 226.341,-30.1924"/>
</g>
<!-- Node9&#45;&gt;Node3 -->
<g id="edge12" class="edge"><title>Node9&#45;&gt;Node3</title>
<path fill="none" stroke="midnightblue" d="M180.786,-112.182C173.456,-103.663 163.245,-90.0191 159,-76 154.263,-60.3561 158.784,-42.0631 163.748,-28.8759"/>
<polygon fill="midnightblue" stroke="midnightblue" points="167.022,-30.1186 167.656,-19.5428 160.565,-27.4152 167.022,-30.1186"/>
</g>
<!-- Node9&#45;&gt;Node8 -->
<g id="edge13" class="edge"><title>Node9&#45;&gt;Node8</title>
<path fill="none" stroke="midnightblue" d="M191.312,-112.083C193.167,-104.927 195.835,-94.6353 198.154,-85.6911"/>
<polygon fill="midnightblue" stroke="midnightblue" points="201.609,-86.3094 200.731,-75.7511 194.834,-84.5527 201.609,-86.3094"/>
</g>
</g>
</svg>
