<?xml version="1.0" encoding="UTF-8" standalone="no"?>
<!DOCTYPE svg PUBLIC "-//W3C//DTD SVG 1.1//EN"
 "http://www.w3.org/Graphics/SVG/1.1/DTD/svg11.dtd">
<!-- Generated by graphviz version 2.38.0 (20140413.2041)
 -->
<!-- Title: consoleprintmenuvisitor.h Pages: 1 -->
<svg width="220pt" height="84pt"
 viewBox="0.00 0.00 219.50 84.00" xmlns="http://www.w3.org/2000/svg" xmlns:xlink="http://www.w3.org/1999/xlink">
<g id="graph0" class="graph" transform="scale(1 1) rotate(0) translate(4 80)">
<title>consoleprintmenuvisitor.h</title>
<polygon fill="white" stroke="none" points="-4,4 -4,-80 215.5,-80 215.5,4 -4,4"/>
<!-- Node1 -->
<g id="node1" class="node"><title>Node1</title>
<polygon fill="#bfbfbf" stroke="black" points="62.5,-56.5 62.5,-75.5 188.5,-75.5 188.5,-56.5 62.5,-56.5"/>
<text text-anchor="middle" x="125.5" y="-63.5" font-family="Helvetica,sans-Serif" font-size="10.00">consoleprintmenuvisitor.h</text>
</g>
<!-- Node2 -->
<g id="node2" class="node"><title>Node2</title>
<g id="a_node2"><a xlink:href="consoleprintmenuvisitor_8cpp.html" target="_top" xlink:title="consoleprintmenuvisitor.cpp">
<polygon fill="white" stroke="black" points="0,-0.5 0,-19.5 137,-19.5 137,-0.5 0,-0.5"/>
<text text-anchor="middle" x="68.5" y="-7.5" font-family="Helvetica,sans-Serif" font-size="10.00">consoleprintmenuvisitor.cpp</text>
</a>
</g>
</g>
<!-- Node1&#45;&gt;Node2 -->
<g id="edge1" class="edge"><title>Node1&#45;&gt;Node2</title>
<path fill="none" stroke="midnightblue" d="M108.879,-49.2533C98.766,-39.6731 86.2234,-27.7906 77.8247,-19.8339"/>
<polygon fill="midnightblue" stroke="midnightblue" points="106.675,-51.9873 116.342,-56.324 111.49,-46.9056 106.675,-51.9873"/>
</g>
<!-- Node3 -->
<g id="node3" class="node"><title>Node3</title>
<g id="a_node3"><a xlink:href="main_8cpp.html" target="_top" xlink:title="main.cpp">
<polygon fill="white" stroke="black" points="155.5,-0.5 155.5,-19.5 211.5,-19.5 211.5,-0.5 155.5,-0.5"/>
<text text-anchor="middle" x="183.5" y="-7.5" font-family="Helvetica,sans-Serif" font-size="10.00">main.cpp</text>
</a>
</g>
</g>
<!-- Node1&#45;&gt;Node3 -->
<g id="edge2" class="edge"><title>Node1&#45;&gt;Node3</title>
<path fill="none" stroke="midnightblue" d="M142.413,-49.2533C152.703,-39.6731 165.466,-27.7906 174.012,-19.8339"/>
<polygon fill="midnightblue" stroke="midnightblue" points="139.753,-46.9481 134.819,-56.324 144.523,-52.0714 139.753,-46.9481"/>
</g>
</g>
</svg>
