<?xml version="1.0" encoding="UTF-8" standalone="no"?>
<!DOCTYPE svg PUBLIC "-//W3C//DTD SVG 1.1//EN"
 "http://www.w3.org/Graphics/SVG/1.1/DTD/svg11.dtd">
<!-- Generated by graphviz version 2.38.0 (20140413.2041)
 -->
<!-- Title: Graphical Class Hierarchy Pages: 1 -->
<svg width="166pt" height="66pt"
 viewBox="0.00 0.00 166.00 66.00" xmlns="http://www.w3.org/2000/svg" xmlns:xlink="http://www.w3.org/1999/xlink">
<g id="graph0" class="graph" transform="scale(1 1) rotate(0) translate(4 62)">
<title>Graphical Class Hierarchy</title>
<polygon fill="white" stroke="none" points="-4,4 -4,-62 162,-62 162,4 -4,4"/>
<!-- Node1 -->
<g id="node1" class="node"><title>Node1</title>
<g id="a_node1"><a xlink:href="class_composite.html" target="_top" xlink:title="Composite">
<polygon fill="white" stroke="black" points="0,-19.5 0,-38.5 63,-38.5 63,-19.5 0,-19.5"/>
<text text-anchor="middle" x="31.5" y="-26.5" font-family="Helvetica,sans-Serif" font-size="10.00">Composite</text>
</a>
</g>
</g>
<!-- Node2 -->
<g id="node2" class="node"><title>Node2</title>
<g id="a_node2"><a xlink:href="class_menu.html" target="_top" xlink:title="The Menu class is a composite class &#45; menu of items and submenus. ">
<polygon fill="white" stroke="black" points="108,-38.5 108,-57.5 149,-57.5 149,-38.5 108,-38.5"/>
<text text-anchor="middle" x="128.5" y="-45.5" font-family="Helvetica,sans-Serif" font-size="10.00">Menu</text>
</a>
</g>
</g>
<!-- Node1&#45;&gt;Node2 -->
<g id="edge1" class="edge"><title>Node1&#45;&gt;Node2</title>
<path fill="none" stroke="midnightblue" d="M72.9768,-37.0954C85.0124,-39.5025 97.6631,-42.0326 107.746,-44.0491"/>
<polygon fill="midnightblue" stroke="midnightblue" points="73.5738,-33.6455 63.0815,-35.1163 72.2009,-40.5096 73.5738,-33.6455"/>
</g>
<!-- Node3 -->
<g id="node3" class="node"><title>Node3</title>
<g id="a_node3"><a xlink:href="class_menu_item.html" target="_top" xlink:title="The MenuItem class is main component, from which derive composites and leaves and also class for menu...">
<polygon fill="white" stroke="black" points="99,-0.5 99,-19.5 158,-19.5 158,-0.5 99,-0.5"/>
<text text-anchor="middle" x="128.5" y="-7.5" font-family="Helvetica,sans-Serif" font-size="10.00">MenuItem</text>
</a>
</g>
</g>
<!-- Node1&#45;&gt;Node3 -->
<g id="edge2" class="edge"><title>Node1&#45;&gt;Node3</title>
<path fill="none" stroke="midnightblue" d="M73.0731,-20.8854C81.7696,-19.1461 90.7827,-17.3435 98.9123,-15.7175"/>
<polygon fill="midnightblue" stroke="midnightblue" points="72.2009,-17.4904 63.0815,-22.8837 73.5738,-24.3545 72.2009,-17.4904"/>
</g>
</g>
</svg>
