<?xml version="1.0" encoding="UTF-8" standalone="no"?>
<!DOCTYPE svg PUBLIC "-//W3C//DTD SVG 1.1//EN"
 "http://www.w3.org/Graphics/SVG/1.1/DTD/svg11.dtd">
<!-- Generated by graphviz version 2.38.0 (20140413.2041)
 -->
<!-- Title: main.cpp Pages: 1 -->
<svg width="619pt" height="196pt"
 viewBox="0.00 0.00 618.50 196.00" xmlns="http://www.w3.org/2000/svg" xmlns:xlink="http://www.w3.org/1999/xlink">
<g id="graph0" class="graph" transform="scale(1 1) rotate(0) translate(4 192)">
<title>main.cpp</title>
<polygon fill="white" stroke="none" points="-4,4 -4,-192 614.5,-192 614.5,4 -4,4"/>
<!-- Node1 -->
<g id="node1" class="node"><title>Node1</title>
<polygon fill="#bfbfbf" stroke="black" points="240,-168.5 240,-187.5 296,-187.5 296,-168.5 240,-168.5"/>
<text text-anchor="middle" x="268" y="-175.5" font-family="Helvetica,sans-Serif" font-size="10.00">main.cpp</text>
</g>
<!-- Node2 -->
<g id="node2" class="node"><title>Node2</title>
<polygon fill="white" stroke="#bfbfbf" points="0,-0.5 0,-19.5 42,-19.5 42,-0.5 0,-0.5"/>
<text text-anchor="middle" x="21" y="-7.5" font-family="Helvetica,sans-Serif" font-size="10.00">vector</text>
</g>
<!-- Node1&#45;&gt;Node2 -->
<g id="edge1" class="edge"><title>Node1&#45;&gt;Node2</title>
<path fill="none" stroke="midnightblue" d="M239.849,-175.696C183.623,-172.467 60.4564,-162.056 33,-132 7.46112,-104.043 11.8201,-55.8581 16.7176,-29.5178"/>
<polygon fill="midnightblue" stroke="midnightblue" points="20.152,-30.1926 18.7638,-19.6892 13.299,-28.7658 20.152,-30.1926"/>
</g>
<!-- Node3 -->
<g id="node3" class="node"><title>Node3</title>
<polygon fill="white" stroke="#bfbfbf" points="164.5,-0.5 164.5,-19.5 205.5,-19.5 205.5,-0.5 164.5,-0.5"/>
<text text-anchor="middle" x="185" y="-7.5" font-family="Helvetica,sans-Serif" font-size="10.00">string</text>
</g>
<!-- Node1&#45;&gt;Node3 -->
<g id="edge2" class="edge"><title>Node1&#45;&gt;Node3</title>
<path fill="none" stroke="midnightblue" d="M262.799,-168.492C257.388,-159.531 248.777,-144.951 242,-132 223.15,-95.9759 203.421,-52.6274 192.833,-28.8248"/>
<polygon fill="midnightblue" stroke="midnightblue" points="196.012,-27.3584 188.766,-19.6289 189.61,-30.19 196.012,-27.3584"/>
</g>
<!-- Node4 -->
<g id="node4" class="node"><title>Node4</title>
<polygon fill="white" stroke="#bfbfbf" points="395,-112.5 395,-131.5 449,-131.5 449,-112.5 395,-112.5"/>
<text text-anchor="middle" x="422" y="-119.5" font-family="Helvetica,sans-Serif" font-size="10.00">iostream</text>
</g>
<!-- Node1&#45;&gt;Node4 -->
<g id="edge3" class="edge"><title>Node1&#45;&gt;Node4</title>
<path fill="none" stroke="midnightblue" d="M292.402,-168.444C318.197,-159.399 359.077,-145.064 388.018,-134.916"/>
<polygon fill="midnightblue" stroke="midnightblue" points="389.434,-138.128 397.712,-131.516 387.118,-131.523 389.434,-138.128"/>
</g>
<!-- Node5 -->
<g id="node5" class="node"><title>Node5</title>
<polygon fill="white" stroke="#bfbfbf" points="467,-112.5 467,-131.5 513,-131.5 513,-112.5 467,-112.5"/>
<text text-anchor="middle" x="490" y="-119.5" font-family="Helvetica,sans-Serif" font-size="10.00">stdio.h</text>
</g>
<!-- Node1&#45;&gt;Node5 -->
<g id="edge4" class="edge"><title>Node1&#45;&gt;Node5</title>
<path fill="none" stroke="midnightblue" d="M296.098,-170.73C331.444,-162.759 394.218,-148.326 457.253,-132.114"/>
<polygon fill="midnightblue" stroke="midnightblue" points="458.154,-135.496 466.959,-129.604 456.401,-128.719 458.154,-135.496"/>
</g>
<!-- Node6 -->
<g id="node6" class="node"><title>Node6</title>
<g id="a_node6"><a xlink:href="menuitem_8h.html" target="_top" xlink:title="menuitem.h">
<polygon fill="white" stroke="black" points="42,-112.5 42,-131.5 110,-131.5 110,-112.5 42,-112.5"/>
<text text-anchor="middle" x="76" y="-119.5" font-family="Helvetica,sans-Serif" font-size="10.00">menuitem.h</text>
</a>
</g>
</g>
<!-- Node1&#45;&gt;Node6 -->
<g id="edge5" class="edge"><title>Node1&#45;&gt;Node6</title>
<path fill="none" stroke="midnightblue" d="M239.67,-169.032C207.061,-159.861 153.257,-144.729 116.297,-134.333"/>
<polygon fill="midnightblue" stroke="midnightblue" points="116.924,-130.874 106.35,-131.536 115.029,-137.613 116.924,-130.874"/>
</g>
<!-- Node8 -->
<g id="node8" class="node"><title>Node8</title>
<g id="a_node8"><a xlink:href="menu_8h.html" target="_top" xlink:title="menu.h">
<polygon fill="white" stroke="black" points="145.5,-112.5 145.5,-131.5 194.5,-131.5 194.5,-112.5 145.5,-112.5"/>
<text text-anchor="middle" x="170" y="-119.5" font-family="Helvetica,sans-Serif" font-size="10.00">menu.h</text>
</a>
</g>
</g>
<!-- Node1&#45;&gt;Node8 -->
<g id="edge11" class="edge"><title>Node1&#45;&gt;Node8</title>
<path fill="none" stroke="midnightblue" d="M252.255,-168.324C236.681,-159.743 212.623,-146.486 194.541,-136.522"/>
<polygon fill="midnightblue" stroke="midnightblue" points="196.154,-133.415 185.706,-131.655 192.776,-139.546 196.154,-133.415"/>
</g>
<!-- Node9 -->
<g id="node9" class="node"><title>Node9</title>
<g id="a_node9"><a xlink:href="menuiterator_8h.html" target="_top" xlink:title="menuiterator.h">
<polygon fill="white" stroke="black" points="531.5,-112.5 531.5,-131.5 610.5,-131.5 610.5,-112.5 531.5,-112.5"/>
<text text-anchor="middle" x="571" y="-119.5" font-family="Helvetica,sans-Serif" font-size="10.00">menuiterator.h</text>
</a>
</g>
</g>
<!-- Node1&#45;&gt;Node9 -->
<g id="edge14" class="edge"><title>Node1&#45;&gt;Node9</title>
<path fill="none" stroke="midnightblue" d="M296.2,-172.064C341.391,-164.14 433.085,-148.011 521.497,-132.081"/>
<polygon fill="midnightblue" stroke="midnightblue" points="522.203,-135.511 531.424,-130.291 520.961,-128.622 522.203,-135.511"/>
</g>
<!-- Node11 -->
<g id="node11" class="node"><title>Node11</title>
<g id="a_node11"><a xlink:href="consoleprintmenuvisitor_8h.html" target="_top" xlink:title="consoleprintmenuvisitor.h">
<polygon fill="white" stroke="black" points="251,-112.5 251,-131.5 377,-131.5 377,-112.5 251,-112.5"/>
<text text-anchor="middle" x="314" y="-119.5" font-family="Helvetica,sans-Serif" font-size="10.00">consoleprintmenuvisitor.h</text>
</a>
</g>
</g>
<!-- Node1&#45;&gt;Node11 -->
<g id="edge16" class="edge"><title>Node1&#45;&gt;Node11</title>
<path fill="none" stroke="midnightblue" d="M275.596,-168.083C282.227,-160.298 292.021,-148.801 300.058,-139.367"/>
<polygon fill="midnightblue" stroke="midnightblue" points="302.725,-141.633 306.545,-131.751 297.396,-137.094 302.725,-141.633"/>
</g>
<!-- Node6&#45;&gt;Node2 -->
<g id="edge7" class="edge"><title>Node6&#45;&gt;Node2</title>
<path fill="none" stroke="midnightblue" d="M69.1398,-112.446C62.3509,-103.684 51.9887,-89.4744 45,-76 37.2114,-60.9833 30.7377,-42.8508 26.4844,-29.5569"/>
<polygon fill="midnightblue" stroke="midnightblue" points="29.7388,-28.232 23.4538,-19.7026 23.0481,-30.2897 29.7388,-28.232"/>
</g>
<!-- Node6&#45;&gt;Node3 -->
<g id="edge6" class="edge"><title>Node6&#45;&gt;Node3</title>
<path fill="none" stroke="midnightblue" d="M73.4891,-112.092C70.2647,-98.6459 66.3685,-72.9389 78,-56 95.1684,-30.9977 129.131,-19.84 154.208,-14.8898"/>
<polygon fill="midnightblue" stroke="midnightblue" points="155.086,-18.2898 164.337,-13.1261 153.885,-11.3936 155.086,-18.2898"/>
</g>
<!-- Node7 -->
<g id="node7" class="node"><title>Node7</title>
<g id="a_node7"><a xlink:href="composite_8h.html" target="_top" xlink:title="composite.h">
<polygon fill="white" stroke="black" points="87,-56.5 87,-75.5 157,-75.5 157,-56.5 87,-56.5"/>
<text text-anchor="middle" x="122" y="-63.5" font-family="Helvetica,sans-Serif" font-size="10.00">composite.h</text>
</a>
</g>
</g>
<!-- Node6&#45;&gt;Node7 -->
<g id="edge8" class="edge"><title>Node6&#45;&gt;Node7</title>
<path fill="none" stroke="midnightblue" d="M83.596,-112.083C90.2275,-104.298 100.021,-92.8015 108.058,-83.3665"/>
<polygon fill="midnightblue" stroke="midnightblue" points="110.725,-85.6332 114.545,-75.7511 105.396,-81.0939 110.725,-85.6332"/>
</g>
<!-- Node7&#45;&gt;Node2 -->
<g id="edge10" class="edge"><title>Node7&#45;&gt;Node2</title>
<path fill="none" stroke="midnightblue" d="M105.773,-56.324C89.649,-47.7034 64.6998,-34.3643 46.0359,-24.3855"/>
<polygon fill="midnightblue" stroke="midnightblue" points="47.6561,-21.283 37.1871,-19.6545 44.3556,-27.456 47.6561,-21.283"/>
</g>
<!-- Node7&#45;&gt;Node3 -->
<g id="edge9" class="edge"><title>Node7&#45;&gt;Node3</title>
<path fill="none" stroke="midnightblue" d="M132.122,-56.324C141.526,-48.2631 155.744,-36.0765 167.069,-26.3695"/>
<polygon fill="midnightblue" stroke="midnightblue" points="169.379,-28.9993 174.694,-19.8339 164.823,-23.6844 169.379,-28.9993"/>
</g>
<!-- Node8&#45;&gt;Node3 -->
<g id="edge12" class="edge"><title>Node8&#45;&gt;Node3</title>
<path fill="none" stroke="midnightblue" d="M171.177,-112.368C173.598,-94.617 179.182,-53.6664 182.464,-29.5974"/>
<polygon fill="midnightblue" stroke="midnightblue" points="185.945,-29.9726 183.828,-19.5914 179.009,-29.0268 185.945,-29.9726"/>
</g>
<!-- Node8&#45;&gt;Node7 -->
<g id="edge13" class="edge"><title>Node8&#45;&gt;Node7</title>
<path fill="none" stroke="midnightblue" d="M162.074,-112.083C155.154,-104.298 144.935,-92.8015 136.548,-83.3665"/>
<polygon fill="midnightblue" stroke="midnightblue" points="139.038,-80.8999 129.779,-75.7511 133.806,-85.5505 139.038,-80.8999"/>
</g>
<!-- Node10 -->
<g id="node10" class="node"><title>Node10</title>
<polygon fill="white" stroke="#bfbfbf" points="550.5,-56.5 550.5,-75.5 591.5,-75.5 591.5,-56.5 550.5,-56.5"/>
<text text-anchor="middle" x="571" y="-63.5" font-family="Helvetica,sans-Serif" font-size="10.00">stack</text>
</g>
<!-- Node9&#45;&gt;Node10 -->
<g id="edge15" class="edge"><title>Node9&#45;&gt;Node10</title>
<path fill="none" stroke="midnightblue" d="M571,-112.083C571,-105.006 571,-94.8611 571,-85.9865"/>
<polygon fill="midnightblue" stroke="midnightblue" points="574.5,-85.751 571,-75.7511 567.5,-85.7511 574.5,-85.751"/>
</g>
<!-- Node11&#45;&gt;Node3 -->
<g id="edge17" class="edge"><title>Node11&#45;&gt;Node3</title>
<path fill="none" stroke="midnightblue" d="M303.878,-112.368C282.024,-93.7334 230.188,-49.5324 202.748,-26.1338"/>
<polygon fill="midnightblue" stroke="midnightblue" points="204.956,-23.4167 195.075,-19.5914 200.414,-28.7431 204.956,-23.4167"/>
</g>
<!-- Node12 -->
<g id="node12" class="node"><title>Node12</title>
<g id="a_node12"><a xlink:href="menuvisitor_8h.html" target="_top" xlink:title="menuvisitor.h">
<polygon fill="white" stroke="black" points="289,-56.5 289,-75.5 363,-75.5 363,-56.5 289,-56.5"/>
<text text-anchor="middle" x="326" y="-63.5" font-family="Helvetica,sans-Serif" font-size="10.00">menuvisitor.h</text>
</a>
</g>
</g>
<!-- Node11&#45;&gt;Node12 -->
<g id="edge18" class="edge"><title>Node11&#45;&gt;Node12</title>
<path fill="none" stroke="midnightblue" d="M315.982,-112.083C317.572,-104.927 319.859,-94.6353 321.846,-85.6911"/>
<polygon fill="midnightblue" stroke="midnightblue" points="325.303,-86.2722 324.055,-75.7511 318.469,-84.7537 325.303,-86.2722"/>
</g>
</g>
</svg>
