<?xml version="1.0" encoding="UTF-8" standalone="no"?>
<!DOCTYPE svg PUBLIC "-//W3C//DTD SVG 1.1//EN"
 "http://www.w3.org/Graphics/SVG/1.1/DTD/svg11.dtd">
<!-- Generated by graphviz version 2.38.0 (20140413.2041)
 -->
<!-- Title: main Pages: 1 -->
<svg width="344pt" height="28pt"
 viewBox="0.00 0.00 344.00 28.00" xmlns="http://www.w3.org/2000/svg" xmlns:xlink="http://www.w3.org/1999/xlink">
<g id="graph0" class="graph" transform="scale(1 1) rotate(0) translate(4 24)">
<title>main</title>
<polygon fill="white" stroke="none" points="-4,4 -4,-24 340,-24 340,4 -4,4"/>
<!-- Node1 -->
<g id="node1" class="node"><title>Node1</title>
<polygon fill="#bfbfbf" stroke="black" points="0,-0.5 0,-19.5 38,-19.5 38,-0.5 0,-0.5"/>
<text text-anchor="middle" x="19" y="-7.5" font-family="Helvetica,sans-Serif" font-size="10.00">main</text>
</g>
<!-- Node2 -->
<g id="node2" class="node"><title>Node2</title>
<g id="a_node2"><a xlink:href="main_8cpp.html#ae3770e546671407bd87b7fffdfbd8d7d" target="_top" xlink:title="createAndPrintMenu">
<polygon fill="white" stroke="black" points="74,-0.5 74,-19.5 179,-19.5 179,-0.5 74,-0.5"/>
<text text-anchor="middle" x="126.5" y="-7.5" font-family="Helvetica,sans-Serif" font-size="10.00">createAndPrintMenu</text>
</a>
</g>
</g>
<!-- Node1&#45;&gt;Node2 -->
<g id="edge1" class="edge"><title>Node1&#45;&gt;Node2</title>
<path fill="none" stroke="midnightblue" d="M38.3767,-10C45.6603,-10 54.4925,-10 63.704,-10"/>
<polygon fill="midnightblue" stroke="midnightblue" points="63.7931,-13.5001 73.7931,-10 63.7931,-6.5001 63.7931,-13.5001"/>
</g>
<!-- Node3 -->
<g id="node3" class="node"><title>Node3</title>
<g id="a_node3"><a xlink:href="class_composite.html#a3c92b2fe40d25cff044072529aed116b" target="_top" xlink:title="Composite::addSubitem">
<polygon fill="white" stroke="black" points="215,-0.5 215,-19.5 336,-19.5 336,-0.5 215,-0.5"/>
<text text-anchor="middle" x="275.5" y="-7.5" font-family="Helvetica,sans-Serif" font-size="10.00">Composite::addSubitem</text>
</a>
</g>
</g>
<!-- Node2&#45;&gt;Node3 -->
<g id="edge2" class="edge"><title>Node2&#45;&gt;Node3</title>
<path fill="none" stroke="midnightblue" d="M179.327,-10C187.585,-10 196.244,-10 204.833,-10"/>
<polygon fill="midnightblue" stroke="midnightblue" points="204.856,-13.5001 214.856,-10 204.856,-6.5001 204.856,-13.5001"/>
</g>
</g>
</svg>
