<?xml version="1.0" encoding="UTF-8" standalone="no"?>
<!DOCTYPE svg PUBLIC "-//W3C//DTD SVG 1.1//EN"
 "http://www.w3.org/Graphics/SVG/1.1/DTD/svg11.dtd">
<!-- Generated by graphviz version 2.38.0 (20140413.2041)
 -->
<!-- Title: menuiterator.cpp Pages: 1 -->
<svg width="202pt" height="196pt"
 viewBox="0.00 0.00 201.50 196.00" xmlns="http://www.w3.org/2000/svg" xmlns:xlink="http://www.w3.org/1999/xlink">
<g id="graph0" class="graph" transform="scale(1 1) rotate(0) translate(4 192)">
<title>menuiterator.cpp</title>
<polygon fill="white" stroke="none" points="-4,4 -4,-192 197.5,-192 197.5,4 -4,4"/>
<!-- Node1 -->
<g id="node1" class="node"><title>Node1</title>
<polygon fill="#bfbfbf" stroke="black" points="43,-168.5 43,-187.5 132,-187.5 132,-168.5 43,-168.5"/>
<text text-anchor="middle" x="87.5" y="-175.5" font-family="Helvetica,sans-Serif" font-size="10.00">menuiterator.cpp</text>
</g>
<!-- Node2 -->
<g id="node2" class="node"><title>Node2</title>
<g id="a_node2"><a xlink:href="menuiterator_8h.html" target="_top" xlink:title="menuiterator.h">
<polygon fill="white" stroke="black" points="0,-112.5 0,-131.5 79,-131.5 79,-112.5 0,-112.5"/>
<text text-anchor="middle" x="39.5" y="-119.5" font-family="Helvetica,sans-Serif" font-size="10.00">menuiterator.h</text>
</a>
</g>
</g>
<!-- Node1&#45;&gt;Node2 -->
<g id="edge1" class="edge"><title>Node1&#45;&gt;Node2</title>
<path fill="none" stroke="midnightblue" d="M79.5738,-168.083C72.6539,-160.298 62.4346,-148.801 54.048,-139.367"/>
<polygon fill="midnightblue" stroke="midnightblue" points="56.5383,-136.9 47.2787,-131.751 51.3065,-141.55 56.5383,-136.9"/>
</g>
<!-- Node4 -->
<g id="node4" class="node"><title>Node4</title>
<g id="a_node4"><a xlink:href="menuitem_8h.html" target="_top" xlink:title="menuitem.h">
<polygon fill="white" stroke="black" points="102.5,-112.5 102.5,-131.5 170.5,-131.5 170.5,-112.5 102.5,-112.5"/>
<text text-anchor="middle" x="136.5" y="-119.5" font-family="Helvetica,sans-Serif" font-size="10.00">menuitem.h</text>
</a>
</g>
</g>
<!-- Node1&#45;&gt;Node4 -->
<g id="edge3" class="edge"><title>Node1&#45;&gt;Node4</title>
<path fill="none" stroke="midnightblue" d="M95.5914,-168.083C102.655,-160.298 113.088,-148.801 121.649,-139.367"/>
<polygon fill="midnightblue" stroke="midnightblue" points="124.431,-141.509 128.559,-131.751 119.247,-136.805 124.431,-141.509"/>
</g>
<!-- Node3 -->
<g id="node3" class="node"><title>Node3</title>
<polygon fill="white" stroke="#bfbfbf" points="9,-56.5 9,-75.5 50,-75.5 50,-56.5 9,-56.5"/>
<text text-anchor="middle" x="29.5" y="-63.5" font-family="Helvetica,sans-Serif" font-size="10.00">stack</text>
</g>
<!-- Node2&#45;&gt;Node3 -->
<g id="edge2" class="edge"><title>Node2&#45;&gt;Node3</title>
<path fill="none" stroke="midnightblue" d="M37.8487,-112.083C36.5236,-104.927 34.6176,-94.6353 32.9613,-85.6911"/>
<polygon fill="midnightblue" stroke="midnightblue" points="36.383,-84.9466 31.1206,-75.7511 29.5001,-86.2212 36.383,-84.9466"/>
</g>
<!-- Node5 -->
<g id="node5" class="node"><title>Node5</title>
<polygon fill="white" stroke="#bfbfbf" points="59,-0.5 59,-19.5 100,-19.5 100,-0.5 59,-0.5"/>
<text text-anchor="middle" x="79.5" y="-7.5" font-family="Helvetica,sans-Serif" font-size="10.00">string</text>
</g>
<!-- Node4&#45;&gt;Node5 -->
<g id="edge4" class="edge"><title>Node4&#45;&gt;Node5</title>
<path fill="none" stroke="midnightblue" d="M126.785,-112.272C117.936,-103.815 105.12,-90.2138 97.5,-76 89.7197,-61.4877 85.0556,-43.3054 82.4319,-29.8642"/>
<polygon fill="midnightblue" stroke="midnightblue" points="85.855,-29.1206 80.6842,-19.8733 78.9597,-30.3268 85.855,-29.1206"/>
</g>
<!-- Node6 -->
<g id="node6" class="node"><title>Node6</title>
<polygon fill="white" stroke="#bfbfbf" points="151.5,-0.5 151.5,-19.5 193.5,-19.5 193.5,-0.5 151.5,-0.5"/>
<text text-anchor="middle" x="172.5" y="-7.5" font-family="Helvetica,sans-Serif" font-size="10.00">vector</text>
</g>
<!-- Node4&#45;&gt;Node6 -->
<g id="edge5" class="edge"><title>Node4&#45;&gt;Node6</title>
<path fill="none" stroke="midnightblue" d="M151.161,-112.402C162.906,-104.585 178.531,-91.8617 185.5,-76 192.14,-60.8872 187.258,-42.3038 181.681,-28.8836"/>
<polygon fill="midnightblue" stroke="midnightblue" points="184.839,-27.3734 177.46,-19.7704 178.487,-30.3153 184.839,-27.3734"/>
</g>
<!-- Node7 -->
<g id="node7" class="node"><title>Node7</title>
<g id="a_node7"><a xlink:href="composite_8h.html" target="_top" xlink:title="composite.h">
<polygon fill="white" stroke="black" points="106.5,-56.5 106.5,-75.5 176.5,-75.5 176.5,-56.5 106.5,-56.5"/>
<text text-anchor="middle" x="141.5" y="-63.5" font-family="Helvetica,sans-Serif" font-size="10.00">composite.h</text>
</a>
</g>
</g>
<!-- Node4&#45;&gt;Node7 -->
<g id="edge6" class="edge"><title>Node4&#45;&gt;Node7</title>
<path fill="none" stroke="midnightblue" d="M137.326,-112.083C137.981,-105.006 138.92,-94.8611 139.742,-85.9865"/>
<polygon fill="midnightblue" stroke="midnightblue" points="143.253,-86.0312 140.69,-75.7511 136.283,-85.3858 143.253,-86.0312"/>
</g>
<!-- Node7&#45;&gt;Node5 -->
<g id="edge7" class="edge"><title>Node7&#45;&gt;Node5</title>
<path fill="none" stroke="midnightblue" d="M131.539,-56.324C122.373,-48.3414 108.563,-36.3128 97.4718,-26.6529"/>
<polygon fill="midnightblue" stroke="midnightblue" points="99.4822,-23.7624 89.6426,-19.8339 94.8847,-29.041 99.4822,-23.7624"/>
</g>
<!-- Node7&#45;&gt;Node6 -->
<g id="edge8" class="edge"><title>Node7&#45;&gt;Node6</title>
<path fill="none" stroke="midnightblue" d="M146.619,-56.083C150.908,-48.6127 157.158,-37.7244 162.442,-28.5199"/>
<polygon fill="midnightblue" stroke="midnightblue" points="165.533,-30.1662 167.476,-19.7511 159.462,-26.6811 165.533,-30.1662"/>
</g>
</g>
</svg>
