<?xml version="1.0" encoding="UTF-8" standalone="no"?>
<!DOCTYPE svg PUBLIC "-//W3C//DTD SVG 1.1//EN"
 "http://www.w3.org/Graphics/SVG/1.1/DTD/svg11.dtd">
<!-- Generated by graphviz version 2.38.0 (20140413.2041)
 -->
<!-- Title: menu.h Pages: 1 -->
<svg width="297pt" height="84pt"
 viewBox="0.00 0.00 297.00 84.00" xmlns="http://www.w3.org/2000/svg" xmlns:xlink="http://www.w3.org/1999/xlink">
<g id="graph0" class="graph" transform="scale(1 1) rotate(0) translate(4 80)">
<title>menu.h</title>
<polygon fill="white" stroke="none" points="-4,4 -4,-80 293,-80 293,4 -4,4"/>
<!-- Node1 -->
<g id="node1" class="node"><title>Node1</title>
<polygon fill="#bfbfbf" stroke="black" points="159,-56.5 159,-75.5 208,-75.5 208,-56.5 159,-56.5"/>
<text text-anchor="middle" x="183.5" y="-63.5" font-family="Helvetica,sans-Serif" font-size="10.00">menu.h</text>
</g>
<!-- Node2 -->
<g id="node2" class="node"><title>Node2</title>
<g id="a_node2"><a xlink:href="consoleprintmenuvisitor_8cpp.html" target="_top" xlink:title="consoleprintmenuvisitor.cpp">
<polygon fill="white" stroke="black" points="0,-0.5 0,-19.5 137,-19.5 137,-0.5 0,-0.5"/>
<text text-anchor="middle" x="68.5" y="-7.5" font-family="Helvetica,sans-Serif" font-size="10.00">consoleprintmenuvisitor.cpp</text>
</a>
</g>
</g>
<!-- Node1&#45;&gt;Node2 -->
<g id="edge1" class="edge"><title>Node1&#45;&gt;Node2</title>
<path fill="none" stroke="midnightblue" d="M156.019,-52.096C134.534,-42.0073 105.278,-28.2697 86.6368,-19.5164"/>
<polygon fill="midnightblue" stroke="midnightblue" points="154.738,-55.3612 165.278,-56.4435 157.714,-49.025 154.738,-55.3612"/>
</g>
<!-- Node3 -->
<g id="node3" class="node"><title>Node3</title>
<g id="a_node3"><a xlink:href="main_8cpp.html" target="_top" xlink:title="main.cpp">
<polygon fill="white" stroke="black" points="155.5,-0.5 155.5,-19.5 211.5,-19.5 211.5,-0.5 155.5,-0.5"/>
<text text-anchor="middle" x="183.5" y="-7.5" font-family="Helvetica,sans-Serif" font-size="10.00">main.cpp</text>
</a>
</g>
</g>
<!-- Node1&#45;&gt;Node3 -->
<g id="edge2" class="edge"><title>Node1&#45;&gt;Node3</title>
<path fill="none" stroke="midnightblue" d="M183.5,-45.8045C183.5,-36.9102 183.5,-26.7798 183.5,-19.7511"/>
<polygon fill="midnightblue" stroke="midnightblue" points="180,-46.083 183.5,-56.083 187,-46.083 180,-46.083"/>
</g>
<!-- Node4 -->
<g id="node4" class="node"><title>Node4</title>
<g id="a_node4"><a xlink:href="menu_8cpp.html" target="_top" xlink:title="menu.cpp">
<polygon fill="white" stroke="black" points="230,-0.5 230,-19.5 289,-19.5 289,-0.5 230,-0.5"/>
<text text-anchor="middle" x="259.5" y="-7.5" font-family="Helvetica,sans-Serif" font-size="10.00">menu.cpp</text>
</a>
</g>
</g>
<!-- Node1&#45;&gt;Node4 -->
<g id="edge3" class="edge"><title>Node1&#45;&gt;Node4</title>
<path fill="none" stroke="midnightblue" d="M204.076,-50.3804C217.812,-40.6204 235.425,-28.1057 247.067,-19.8339"/>
<polygon fill="midnightblue" stroke="midnightblue" points="201.835,-47.6787 195.711,-56.324 205.89,-53.385 201.835,-47.6787"/>
</g>
</g>
</svg>
