<?xml version="1.0" encoding="UTF-8" standalone="no"?>
<!DOCTYPE svg PUBLIC "-//W3C//DTD SVG 1.1//EN"
 "http://www.w3.org/Graphics/SVG/1.1/DTD/svg11.dtd">
<!-- Generated by graphviz version 2.38.0 (20140413.2041)
 -->
<!-- Title: menuiterator.h Pages: 1 -->
<svg width="171pt" height="84pt"
 viewBox="0.00 0.00 170.50 84.00" xmlns="http://www.w3.org/2000/svg" xmlns:xlink="http://www.w3.org/1999/xlink">
<g id="graph0" class="graph" transform="scale(1 1) rotate(0) translate(4 80)">
<title>menuiterator.h</title>
<polygon fill="white" stroke="none" points="-4,4 -4,-80 166.5,-80 166.5,4 -4,4"/>
<!-- Node1 -->
<g id="node1" class="node"><title>Node1</title>
<polygon fill="#bfbfbf" stroke="black" points="33.5,-56.5 33.5,-75.5 112.5,-75.5 112.5,-56.5 33.5,-56.5"/>
<text text-anchor="middle" x="73" y="-63.5" font-family="Helvetica,sans-Serif" font-size="10.00">menuiterator.h</text>
</g>
<!-- Node2 -->
<g id="node2" class="node"><title>Node2</title>
<g id="a_node2"><a xlink:href="main_8cpp.html" target="_top" xlink:title="main.cpp">
<polygon fill="white" stroke="black" points="0,-0.5 0,-19.5 56,-19.5 56,-0.5 0,-0.5"/>
<text text-anchor="middle" x="28" y="-7.5" font-family="Helvetica,sans-Serif" font-size="10.00">main.cpp</text>
</a>
</g>
</g>
<!-- Node1&#45;&gt;Node2 -->
<g id="edge1" class="edge"><title>Node1&#45;&gt;Node2</title>
<path fill="none" stroke="midnightblue" d="M58.9533,-48.144C51.1131,-38.7357 41.6705,-27.4046 35.2926,-19.7511"/>
<polygon fill="midnightblue" stroke="midnightblue" points="56.4785,-50.6414 65.5692,-56.083 61.8561,-46.1601 56.4785,-50.6414"/>
</g>
<!-- Node3 -->
<g id="node3" class="node"><title>Node3</title>
<g id="a_node3"><a xlink:href="menuiterator_8cpp.html" target="_top" xlink:title="menuiterator.cpp">
<polygon fill="white" stroke="black" points="73.5,-0.5 73.5,-19.5 162.5,-19.5 162.5,-0.5 73.5,-0.5"/>
<text text-anchor="middle" x="118" y="-7.5" font-family="Helvetica,sans-Serif" font-size="10.00">menuiterator.cpp</text>
</a>
</g>
</g>
<!-- Node1&#45;&gt;Node3 -->
<g id="edge2" class="edge"><title>Node1&#45;&gt;Node3</title>
<path fill="none" stroke="midnightblue" d="M87.0467,-48.144C94.8869,-38.7357 104.329,-27.4046 110.707,-19.7511"/>
<polygon fill="midnightblue" stroke="midnightblue" points="84.1439,-46.1601 80.4308,-56.083 89.5215,-50.6414 84.1439,-46.1601"/>
</g>
</g>
</svg>
