<?xml version="1.0" encoding="UTF-8" standalone="no"?>
<!DOCTYPE svg PUBLIC "-//W3C//DTD SVG 1.1//EN"
 "http://www.w3.org/Graphics/SVG/1.1/DTD/svg11.dtd">
<!-- Generated by graphviz version 2.38.0 (20140413.2041)
 -->
<!-- Title: menu.cpp Pages: 1 -->
<svg width="176pt" height="196pt"
 viewBox="0.00 0.00 175.50 196.00" xmlns="http://www.w3.org/2000/svg" xmlns:xlink="http://www.w3.org/1999/xlink">
<g id="graph0" class="graph" transform="scale(1 1) rotate(0) translate(4 192)">
<title>menu.cpp</title>
<polygon fill="white" stroke="none" points="-4,4 -4,-192 171.5,-192 171.5,4 -4,4"/>
<!-- Node1 -->
<g id="node1" class="node"><title>Node1</title>
<polygon fill="#bfbfbf" stroke="black" points="61,-168.5 61,-187.5 120,-187.5 120,-168.5 61,-168.5"/>
<text text-anchor="middle" x="90.5" y="-175.5" font-family="Helvetica,sans-Serif" font-size="10.00">menu.cpp</text>
</g>
<!-- Node2 -->
<g id="node2" class="node"><title>Node2</title>
<g id="a_node2"><a xlink:href="menu_8h.html" target="_top" xlink:title="menu.h">
<polygon fill="white" stroke="black" points="26,-112.5 26,-131.5 75,-131.5 75,-112.5 26,-112.5"/>
<text text-anchor="middle" x="50.5" y="-119.5" font-family="Helvetica,sans-Serif" font-size="10.00">menu.h</text>
</a>
</g>
</g>
<!-- Node1&#45;&gt;Node2 -->
<g id="edge1" class="edge"><title>Node1&#45;&gt;Node2</title>
<path fill="none" stroke="midnightblue" d="M83.8948,-168.083C78.2448,-160.455 69.9552,-149.264 63.0488,-139.941"/>
<polygon fill="midnightblue" stroke="midnightblue" points="65.7471,-137.703 56.9823,-131.751 60.1221,-141.87 65.7471,-137.703"/>
</g>
<!-- Node6 -->
<g id="node6" class="node"><title>Node6</title>
<g id="a_node6"><a xlink:href="menuvisitor_8h.html" target="_top" xlink:title="menuvisitor.h">
<polygon fill="white" stroke="black" points="93.5,-112.5 93.5,-131.5 167.5,-131.5 167.5,-112.5 93.5,-112.5"/>
<text text-anchor="middle" x="130.5" y="-119.5" font-family="Helvetica,sans-Serif" font-size="10.00">menuvisitor.h</text>
</a>
</g>
</g>
<!-- Node1&#45;&gt;Node6 -->
<g id="edge6" class="edge"><title>Node1&#45;&gt;Node6</title>
<path fill="none" stroke="midnightblue" d="M97.1052,-168.083C102.755,-160.455 111.045,-149.264 117.951,-139.941"/>
<polygon fill="midnightblue" stroke="midnightblue" points="120.878,-141.87 124.018,-131.751 115.253,-137.703 120.878,-141.87"/>
</g>
<!-- Node3 -->
<g id="node3" class="node"><title>Node3</title>
<polygon fill="white" stroke="#bfbfbf" points="0,-0.5 0,-19.5 41,-19.5 41,-0.5 0,-0.5"/>
<text text-anchor="middle" x="20.5" y="-7.5" font-family="Helvetica,sans-Serif" font-size="10.00">string</text>
</g>
<!-- Node2&#45;&gt;Node3 -->
<g id="edge2" class="edge"><title>Node2&#45;&gt;Node3</title>
<path fill="none" stroke="midnightblue" d="M48.146,-112.368C43.2827,-94.5366 32.0351,-53.2953 25.4832,-29.2717"/>
<polygon fill="midnightblue" stroke="midnightblue" points="28.851,-28.3181 22.8431,-19.5914 22.0977,-30.16 28.851,-28.3181"/>
</g>
<!-- Node4 -->
<g id="node4" class="node"><title>Node4</title>
<g id="a_node4"><a xlink:href="composite_8h.html" target="_top" xlink:title="composite.h">
<polygon fill="white" stroke="black" points="47.5,-56.5 47.5,-75.5 117.5,-75.5 117.5,-56.5 47.5,-56.5"/>
<text text-anchor="middle" x="82.5" y="-63.5" font-family="Helvetica,sans-Serif" font-size="10.00">composite.h</text>
</a>
</g>
</g>
<!-- Node2&#45;&gt;Node4 -->
<g id="edge3" class="edge"><title>Node2&#45;&gt;Node4</title>
<path fill="none" stroke="midnightblue" d="M55.7841,-112.083C60.211,-104.613 66.6633,-93.7244 72.1179,-84.5199"/>
<polygon fill="midnightblue" stroke="midnightblue" points="75.2271,-86.1383 77.3142,-75.7511 69.2051,-82.5697 75.2271,-86.1383"/>
</g>
<!-- Node4&#45;&gt;Node3 -->
<g id="edge4" class="edge"><title>Node4&#45;&gt;Node3</title>
<path fill="none" stroke="midnightblue" d="M72.5386,-56.324C63.3734,-48.3414 49.5628,-36.3128 38.4718,-26.6529"/>
<polygon fill="midnightblue" stroke="midnightblue" points="40.4822,-23.7624 30.6426,-19.8339 35.8847,-29.041 40.4822,-23.7624"/>
</g>
<!-- Node5 -->
<g id="node5" class="node"><title>Node5</title>
<polygon fill="white" stroke="#bfbfbf" points="61.5,-0.5 61.5,-19.5 103.5,-19.5 103.5,-0.5 61.5,-0.5"/>
<text text-anchor="middle" x="82.5" y="-7.5" font-family="Helvetica,sans-Serif" font-size="10.00">vector</text>
</g>
<!-- Node4&#45;&gt;Node5 -->
<g id="edge5" class="edge"><title>Node4&#45;&gt;Node5</title>
<path fill="none" stroke="midnightblue" d="M82.5,-56.083C82.5,-49.0059 82.5,-38.8611 82.5,-29.9865"/>
<polygon fill="midnightblue" stroke="midnightblue" points="86.0001,-29.751 82.5,-19.7511 79.0001,-29.7511 86.0001,-29.751"/>
</g>
</g>
</svg>
