<?xml version="1.0" encoding="UTF-8" standalone="no"?>
<!DOCTYPE svg PUBLIC "-//W3C//DTD SVG 1.1//EN"
 "http://www.w3.org/Graphics/SVG/1.1/DTD/svg11.dtd">
<!-- Generated by graphviz version 2.38.0 (20140413.2041)
 -->
<!-- Title: menuvisitor.h Pages: 1 -->
<svg width="371pt" height="140pt"
 viewBox="0.00 0.00 370.50 140.00" xmlns="http://www.w3.org/2000/svg" xmlns:xlink="http://www.w3.org/1999/xlink">
<g id="graph0" class="graph" transform="scale(1 1) rotate(0) translate(4 136)">
<title>menuvisitor.h</title>
<polygon fill="white" stroke="none" points="-4,4 -4,-136 366.5,-136 366.5,4 -4,4"/>
<!-- Node1 -->
<g id="node1" class="node"><title>Node1</title>
<polygon fill="#bfbfbf" stroke="black" points="199.5,-112.5 199.5,-131.5 273.5,-131.5 273.5,-112.5 199.5,-112.5"/>
<text text-anchor="middle" x="236.5" y="-119.5" font-family="Helvetica,sans-Serif" font-size="10.00">menuvisitor.h</text>
</g>
<!-- Node2 -->
<g id="node2" class="node"><title>Node2</title>
<g id="a_node2"><a xlink:href="consoleprintmenuvisitor_8h.html" target="_top" xlink:title="consoleprintmenuvisitor.h">
<polygon fill="white" stroke="black" points="62.5,-56.5 62.5,-75.5 188.5,-75.5 188.5,-56.5 62.5,-56.5"/>
<text text-anchor="middle" x="125.5" y="-63.5" font-family="Helvetica,sans-Serif" font-size="10.00">consoleprintmenuvisitor.h</text>
</a>
</g>
</g>
<!-- Node1&#45;&gt;Node2 -->
<g id="edge1" class="edge"><title>Node1&#45;&gt;Node2</title>
<path fill="none" stroke="midnightblue" d="M209.495,-107.862C188.912,-97.8492 161.155,-84.3458 143.29,-75.6545"/>
<polygon fill="midnightblue" stroke="midnightblue" points="208.142,-111.097 218.666,-112.324 211.205,-104.802 208.142,-111.097"/>
</g>
<!-- Node5 -->
<g id="node5" class="node"><title>Node5</title>
<g id="a_node5"><a xlink:href="menu_8cpp.html" target="_top" xlink:title="menu.cpp">
<polygon fill="white" stroke="black" points="207,-56.5 207,-75.5 266,-75.5 266,-56.5 207,-56.5"/>
<text text-anchor="middle" x="236.5" y="-63.5" font-family="Helvetica,sans-Serif" font-size="10.00">menu.cpp</text>
</a>
</g>
</g>
<!-- Node1&#45;&gt;Node5 -->
<g id="edge4" class="edge"><title>Node1&#45;&gt;Node5</title>
<path fill="none" stroke="midnightblue" d="M236.5,-101.805C236.5,-92.9102 236.5,-82.7798 236.5,-75.7511"/>
<polygon fill="midnightblue" stroke="midnightblue" points="233,-102.083 236.5,-112.083 240,-102.083 233,-102.083"/>
</g>
<!-- Node6 -->
<g id="node6" class="node"><title>Node6</title>
<g id="a_node6"><a xlink:href="menuitem_8cpp.html" target="_top" xlink:title="menuitem.cpp">
<polygon fill="white" stroke="black" points="284.5,-56.5 284.5,-75.5 362.5,-75.5 362.5,-56.5 284.5,-56.5"/>
<text text-anchor="middle" x="323.5" y="-63.5" font-family="Helvetica,sans-Serif" font-size="10.00">menuitem.cpp</text>
</a>
</g>
</g>
<!-- Node1&#45;&gt;Node6 -->
<g id="edge5" class="edge"><title>Node1&#45;&gt;Node6</title>
<path fill="none" stroke="midnightblue" d="M259.216,-106.901C275.169,-96.9986 295.997,-84.0705 309.557,-75.6545"/>
<polygon fill="midnightblue" stroke="midnightblue" points="257.129,-104.077 250.478,-112.324 260.82,-110.024 257.129,-104.077"/>
</g>
<!-- Node3 -->
<g id="node3" class="node"><title>Node3</title>
<g id="a_node3"><a xlink:href="consoleprintmenuvisitor_8cpp.html" target="_top" xlink:title="consoleprintmenuvisitor.cpp">
<polygon fill="white" stroke="black" points="0,-0.5 0,-19.5 137,-19.5 137,-0.5 0,-0.5"/>
<text text-anchor="middle" x="68.5" y="-7.5" font-family="Helvetica,sans-Serif" font-size="10.00">consoleprintmenuvisitor.cpp</text>
</a>
</g>
</g>
<!-- Node2&#45;&gt;Node3 -->
<g id="edge2" class="edge"><title>Node2&#45;&gt;Node3</title>
<path fill="none" stroke="midnightblue" d="M108.879,-49.2533C98.766,-39.6731 86.2234,-27.7906 77.8247,-19.8339"/>
<polygon fill="midnightblue" stroke="midnightblue" points="106.675,-51.9873 116.342,-56.324 111.49,-46.9056 106.675,-51.9873"/>
</g>
<!-- Node4 -->
<g id="node4" class="node"><title>Node4</title>
<g id="a_node4"><a xlink:href="main_8cpp.html" target="_top" xlink:title="main.cpp">
<polygon fill="white" stroke="black" points="155.5,-0.5 155.5,-19.5 211.5,-19.5 211.5,-0.5 155.5,-0.5"/>
<text text-anchor="middle" x="183.5" y="-7.5" font-family="Helvetica,sans-Serif" font-size="10.00">main.cpp</text>
</a>
</g>
</g>
<!-- Node2&#45;&gt;Node4 -->
<g id="edge3" class="edge"><title>Node2&#45;&gt;Node4</title>
<path fill="none" stroke="midnightblue" d="M142.413,-49.2533C152.703,-39.6731 165.466,-27.7906 174.012,-19.8339"/>
<polygon fill="midnightblue" stroke="midnightblue" points="139.753,-46.9481 134.819,-56.324 144.523,-52.0714 139.753,-46.9481"/>
</g>
</g>
</svg>
