<?xml version="1.0" encoding="UTF-8" standalone="no"?>
<!DOCTYPE svg PUBLIC "-//W3C//DTD SVG 1.1//EN"
 "http://www.w3.org/Graphics/SVG/1.1/DTD/svg11.dtd">
<!-- Generated by graphviz version 2.38.0 (20140413.2041)
 -->
<!-- Title: menuitem.cpp Pages: 1 -->
<svg width="289pt" height="196pt"
 viewBox="0.00 0.00 288.50 196.00" xmlns="http://www.w3.org/2000/svg" xmlns:xlink="http://www.w3.org/1999/xlink">
<g id="graph0" class="graph" transform="scale(1 1) rotate(0) translate(4 192)">
<title>menuitem.cpp</title>
<polygon fill="white" stroke="none" points="-4,4 -4,-192 284.5,-192 284.5,4 -4,4"/>
<!-- Node1 -->
<g id="node1" class="node"><title>Node1</title>
<polygon fill="#bfbfbf" stroke="black" points="122.5,-168.5 122.5,-187.5 200.5,-187.5 200.5,-168.5 122.5,-168.5"/>
<text text-anchor="middle" x="161.5" y="-175.5" font-family="Helvetica,sans-Serif" font-size="10.00">menuitem.cpp</text>
</g>
<!-- Node2 -->
<g id="node2" class="node"><title>Node2</title>
<g id="a_node2"><a xlink:href="menuitem_8h.html" target="_top" xlink:title="menuitem.h">
<polygon fill="white" stroke="black" points="48.5,-112.5 48.5,-131.5 116.5,-131.5 116.5,-112.5 48.5,-112.5"/>
<text text-anchor="middle" x="82.5" y="-119.5" font-family="Helvetica,sans-Serif" font-size="10.00">menuitem.h</text>
</a>
</g>
</g>
<!-- Node1&#45;&gt;Node2 -->
<g id="edge1" class="edge"><title>Node1&#45;&gt;Node2</title>
<path fill="none" stroke="midnightblue" d="M148.807,-168.324C136.599,-159.979 117.922,-147.212 103.497,-137.352"/>
<polygon fill="midnightblue" stroke="midnightblue" points="105.392,-134.408 95.1612,-131.655 101.442,-140.187 105.392,-134.408"/>
</g>
<!-- Node6 -->
<g id="node6" class="node"><title>Node6</title>
<polygon fill="white" stroke="#bfbfbf" points="134.5,-112.5 134.5,-131.5 188.5,-131.5 188.5,-112.5 134.5,-112.5"/>
<text text-anchor="middle" x="161.5" y="-119.5" font-family="Helvetica,sans-Serif" font-size="10.00">iostream</text>
</g>
<!-- Node1&#45;&gt;Node6 -->
<g id="edge7" class="edge"><title>Node1&#45;&gt;Node6</title>
<path fill="none" stroke="midnightblue" d="M161.5,-168.083C161.5,-161.006 161.5,-150.861 161.5,-141.986"/>
<polygon fill="midnightblue" stroke="midnightblue" points="165,-141.751 161.5,-131.751 158,-141.751 165,-141.751"/>
</g>
<!-- Node7 -->
<g id="node7" class="node"><title>Node7</title>
<g id="a_node7"><a xlink:href="menuvisitor_8h.html" target="_top" xlink:title="menuvisitor.h">
<polygon fill="white" stroke="black" points="206.5,-112.5 206.5,-131.5 280.5,-131.5 280.5,-112.5 206.5,-112.5"/>
<text text-anchor="middle" x="243.5" y="-119.5" font-family="Helvetica,sans-Serif" font-size="10.00">menuvisitor.h</text>
</a>
</g>
</g>
<!-- Node1&#45;&gt;Node7 -->
<g id="edge8" class="edge"><title>Node1&#45;&gt;Node7</title>
<path fill="none" stroke="midnightblue" d="M174.675,-168.324C187.347,-159.979 206.733,-147.212 221.706,-137.352"/>
<polygon fill="midnightblue" stroke="midnightblue" points="223.931,-140.078 230.358,-131.655 220.081,-134.231 223.931,-140.078"/>
</g>
<!-- Node3 -->
<g id="node3" class="node"><title>Node3</title>
<polygon fill="white" stroke="#bfbfbf" points="0,-0.5 0,-19.5 41,-19.5 41,-0.5 0,-0.5"/>
<text text-anchor="middle" x="20.5" y="-7.5" font-family="Helvetica,sans-Serif" font-size="10.00">string</text>
</g>
<!-- Node2&#45;&gt;Node3 -->
<g id="edge2" class="edge"><title>Node2&#45;&gt;Node3</title>
<path fill="none" stroke="midnightblue" d="M71.1079,-112.207C61.1103,-103.907 46.8924,-90.5845 38.5,-76 30.1961,-61.5693 25.5637,-43.1168 23.086,-29.5619"/>
<polygon fill="midnightblue" stroke="midnightblue" points="26.5157,-28.8441 21.4782,-19.5235 19.6038,-29.9512 26.5157,-28.8441"/>
</g>
<!-- Node4 -->
<g id="node4" class="node"><title>Node4</title>
<polygon fill="white" stroke="#bfbfbf" points="92.5,-0.5 92.5,-19.5 134.5,-19.5 134.5,-0.5 92.5,-0.5"/>
<text text-anchor="middle" x="113.5" y="-7.5" font-family="Helvetica,sans-Serif" font-size="10.00">vector</text>
</g>
<!-- Node2&#45;&gt;Node4 -->
<g id="edge3" class="edge"><title>Node2&#45;&gt;Node4</title>
<path fill="none" stroke="midnightblue" d="M95.2809,-112.369C105.894,-104.36 120.231,-91.3795 126.5,-76 132.67,-60.8641 127.992,-42.5154 122.604,-29.1779"/>
<polygon fill="midnightblue" stroke="midnightblue" points="125.634,-27.3828 118.324,-19.713 119.255,-30.2668 125.634,-27.3828"/>
</g>
<!-- Node5 -->
<g id="node5" class="node"><title>Node5</title>
<g id="a_node5"><a xlink:href="composite_8h.html" target="_top" xlink:title="composite.h">
<polygon fill="white" stroke="black" points="47.5,-56.5 47.5,-75.5 117.5,-75.5 117.5,-56.5 47.5,-56.5"/>
<text text-anchor="middle" x="82.5" y="-63.5" font-family="Helvetica,sans-Serif" font-size="10.00">composite.h</text>
</a>
</g>
</g>
<!-- Node2&#45;&gt;Node5 -->
<g id="edge4" class="edge"><title>Node2&#45;&gt;Node5</title>
<path fill="none" stroke="midnightblue" d="M82.5,-112.083C82.5,-105.006 82.5,-94.8611 82.5,-85.9865"/>
<polygon fill="midnightblue" stroke="midnightblue" points="86.0001,-85.751 82.5,-75.7511 79.0001,-85.7511 86.0001,-85.751"/>
</g>
<!-- Node5&#45;&gt;Node3 -->
<g id="edge5" class="edge"><title>Node5&#45;&gt;Node3</title>
<path fill="none" stroke="midnightblue" d="M72.5386,-56.324C63.3734,-48.3414 49.5628,-36.3128 38.4718,-26.6529"/>
<polygon fill="midnightblue" stroke="midnightblue" points="40.4822,-23.7624 30.6426,-19.8339 35.8847,-29.041 40.4822,-23.7624"/>
</g>
<!-- Node5&#45;&gt;Node4 -->
<g id="edge6" class="edge"><title>Node5&#45;&gt;Node4</title>
<path fill="none" stroke="midnightblue" d="M87.619,-56.083C91.9075,-48.6127 98.1582,-37.7244 103.442,-28.5199"/>
<polygon fill="midnightblue" stroke="midnightblue" points="106.533,-30.1662 108.476,-19.7511 100.462,-26.6811 106.533,-30.1662"/>
</g>
</g>
</svg>
