<?xml version="1.0" encoding="UTF-8" standalone="no"?>
<!DOCTYPE svg PUBLIC "-//W3C//DTD SVG 1.1//EN"
 "http://www.w3.org/Graphics/SVG/1.1/DTD/svg11.dtd">
<!-- Generated by graphviz version 2.38.0 (20140413.2041)
 -->
<!-- Title: menuitem.h Pages: 1 -->
<svg width="423pt" height="84pt"
 viewBox="0.00 0.00 423.00 84.00" xmlns="http://www.w3.org/2000/svg" xmlns:xlink="http://www.w3.org/1999/xlink">
<g id="graph0" class="graph" transform="scale(1 1) rotate(0) translate(4 80)">
<title>menuitem.h</title>
<polygon fill="white" stroke="none" points="-4,4 -4,-80 419,-80 419,4 -4,4"/>
<!-- Node1 -->
<g id="node1" class="node"><title>Node1</title>
<polygon fill="#bfbfbf" stroke="black" points="191.5,-56.5 191.5,-75.5 259.5,-75.5 259.5,-56.5 191.5,-56.5"/>
<text text-anchor="middle" x="225.5" y="-63.5" font-family="Helvetica,sans-Serif" font-size="10.00">menuitem.h</text>
</g>
<!-- Node2 -->
<g id="node2" class="node"><title>Node2</title>
<g id="a_node2"><a xlink:href="consoleprintmenuvisitor_8cpp.html" target="_top" xlink:title="consoleprintmenuvisitor.cpp">
<polygon fill="white" stroke="black" points="0,-0.5 0,-19.5 137,-19.5 137,-0.5 0,-0.5"/>
<text text-anchor="middle" x="68.5" y="-7.5" font-family="Helvetica,sans-Serif" font-size="10.00">consoleprintmenuvisitor.cpp</text>
</a>
</g>
</g>
<!-- Node1&#45;&gt;Node2 -->
<g id="edge1" class="edge"><title>Node1&#45;&gt;Node2</title>
<path fill="none" stroke="midnightblue" d="M191.111,-53.172C161.548,-43.0039 119.627,-28.5852 93.2607,-19.5164"/>
<polygon fill="midnightblue" stroke="midnightblue" points="190.028,-56.5007 200.623,-56.4435 192.305,-49.8813 190.028,-56.5007"/>
</g>
<!-- Node3 -->
<g id="node3" class="node"><title>Node3</title>
<g id="a_node3"><a xlink:href="main_8cpp.html" target="_top" xlink:title="main.cpp">
<polygon fill="white" stroke="black" points="155.5,-0.5 155.5,-19.5 211.5,-19.5 211.5,-0.5 155.5,-0.5"/>
<text text-anchor="middle" x="183.5" y="-7.5" font-family="Helvetica,sans-Serif" font-size="10.00">main.cpp</text>
</a>
</g>
</g>
<!-- Node1&#45;&gt;Node3 -->
<g id="edge2" class="edge"><title>Node1&#45;&gt;Node3</title>
<path fill="none" stroke="midnightblue" d="M212.39,-48.144C205.072,-38.7357 196.259,-27.4046 190.306,-19.7511"/>
<polygon fill="midnightblue" stroke="midnightblue" points="209.662,-50.3383 218.565,-56.083 215.188,-46.0406 209.662,-50.3383"/>
</g>
<!-- Node4 -->
<g id="node4" class="node"><title>Node4</title>
<g id="a_node4"><a xlink:href="menuitem_8cpp.html" target="_top" xlink:title="menuitem.cpp">
<polygon fill="white" stroke="black" points="229.5,-0.5 229.5,-19.5 307.5,-19.5 307.5,-0.5 229.5,-0.5"/>
<text text-anchor="middle" x="268.5" y="-7.5" font-family="Helvetica,sans-Serif" font-size="10.00">menuitem.cpp</text>
</a>
</g>
</g>
<!-- Node1&#45;&gt;Node4 -->
<g id="edge3" class="edge"><title>Node1&#45;&gt;Node4</title>
<path fill="none" stroke="midnightblue" d="M238.922,-48.144C246.414,-38.7357 255.437,-27.4046 261.532,-19.7511"/>
<polygon fill="midnightblue" stroke="midnightblue" points="236.092,-46.0799 232.601,-56.083 241.568,-50.4404 236.092,-46.0799"/>
</g>
<!-- Node5 -->
<g id="node5" class="node"><title>Node5</title>
<g id="a_node5"><a xlink:href="menuiterator_8cpp.html" target="_top" xlink:title="menuiterator.cpp">
<polygon fill="white" stroke="black" points="326,-0.5 326,-19.5 415,-19.5 415,-0.5 326,-0.5"/>
<text text-anchor="middle" x="370.5" y="-7.5" font-family="Helvetica,sans-Serif" font-size="10.00">menuiterator.cpp</text>
</a>
</g>
</g>
<!-- Node1&#45;&gt;Node5 -->
<g id="edge4" class="edge"><title>Node1&#45;&gt;Node5</title>
<path fill="none" stroke="midnightblue" d="M257.975,-52.9058C285.236,-42.7536 323.492,-28.5063 347.632,-19.5164"/>
<polygon fill="midnightblue" stroke="midnightblue" points="256.625,-49.6736 248.476,-56.4435 259.068,-56.2334 256.625,-49.6736"/>
</g>
</g>
</svg>
